<?xml version="1.0" encoding="utf-8"?>
<!-- Generator: Adobe Illustrator 21.0.0, SVG Export Plug-In . SVG Version: 6.00 Build 0)  -->
<svg version="1.1" id="Layer_1" xmlns="http://www.w3.org/2000/svg" xmlns:xlink="http://www.w3.org/1999/xlink" x="0px" y="0px"
	 viewBox="0 0 456.1 500.4" style="enable-background:new 0 0 456.1 500.4;" xml:space="preserve">
<style type="text/css">
	.st0{fill:#B1B4C4;}
	.st1{fill:#E4E7F2;}
	.st2{fill:#D6D8E5;}
	.st3{fill:#FFFFFF;}
	.st4{opacity:0.5;fill:url(#SVGID_1_);enable-background:new    ;}
	.st5{opacity:0.4;fill:#D6D8E5;enable-background:new    ;}
	.st6{fill:#2B303F;}
	.st7{fill:#C3C6D1;}
	.st8{fill:#E9EAF2;}
	.st9{fill:#8C50FF;}
	.st10{fill:url(#SVGID_2_);}
	.st11{fill:none;stroke:#CCCEDD;stroke-width:1.06;stroke-miterlimit:10;}
	.st12{fill:#FFCEA9;}
	.st13{fill:#38226D;}
	.st14{fill:#9C73FF;}
	.st15{fill:#F4F4F4;}
	.st16{fill:#3A2C6D;}
	.st17{fill:#BFBFBF;}
	.st18{fill:#E5E5E5;}
	.st19{fill:#EDEDED;}
</style>
<title>app_development_SVG</title>
<g id="Слой_2">
	<g id="Слой_1-2">
		<g id="Laptop">
			<path class="st0" d="M443.8,385L193.7,240.6c-3.5-2-6.4-7.5-6.4-12.1V35c0-4.7,2.8-6.8,6.4-4.8l250.1,144.4
				c3.5,2,6.4,7.5,6.4,12.1v193.5C450.2,384.9,447.4,387.1,443.8,385z"/>
			<polygon class="st0" points="445.1,387 447.9,385.4 446.7,377.2 			"/>
			<path class="st0" d="M186.9,31.4l2.7-1.6l3.9,2.2c0,0-4.2,0.6-4.3,0.6S186.9,31.4,186.9,31.4z"/>
			<path class="st1" d="M441.6,386.4L191.4,242c-3.5-2-6.4-7.5-6.4-12.1V36.4c0-4.7,2.9-6.8,6.4-4.8L441.6,176
				c3.5,2,6.4,7.5,6.4,12.1v193.4C447.9,386.2,445.1,388.4,441.6,386.4z"/>
			<path class="st2" d="M441.1,386.6L191,242.2c-3.5-2-6.4-7.5-6.4-12.1V36.6c0-4.7,2.9-6.8,6.4-4.8l250.1,144.4
				c3.5,2,6.4,7.5,6.4,12.1v193.5C447.5,386.5,444.6,388.7,441.1,386.6z"/>
			<path class="st3" d="M444,374.9L187.8,226.9L188,37.4c0-1.9,1.4-2.7,3-1.8l250.1,144.4c1.8,1.2,2.9,3.1,3,5.3L444,374.9z"/>
			
				<linearGradient id="SVGID_1_" gradientUnits="userSpaceOnUse" x1="-211.508" y1="-1784.7981" x2="-211.508" y2="-1617.5281" gradientTransform="matrix(0.87 0.5 0 -1.15 499.9151 -1656.3284)">
				<stop  offset="0.21" style="stop-color:#FFFFFF;stop-opacity:0"/>
				<stop  offset="1" style="stop-color:#FFFFFF;stop-opacity:0.2"/>
			</linearGradient>
			<path class="st4" d="M443.9,374.9L187.8,227l0.1-189.5c0-1.9,1.4-2.7,3-1.8L441,180.1c1.8,1.2,2.9,3.1,3,5.3L443.9,374.9z"/>
			<path class="st5" d="M252.5,499L2.4,354.6c-3.5-2-3.1-5.6,1-7.9L170.9,250c4-2.3,10.2-2.6,13.7-0.6l250.1,144.4
				c3.5,2,3.1,5.6-1,7.9l-167.6,96.7C262.1,500.8,256,501.1,252.5,499z"/>
			<path class="st0" d="M257.9,495.8L7.8,351.4c-3.5-2-3.1-5.6,1-7.9l167.6-96.7c4-2.3,10.2-2.6,13.7-0.6l250.1,144.4
				c3.5,2,3.1,5.6-1,7.9l-167.5,96.7C267.6,497.5,261.4,497.8,257.9,495.8z"/>
			<polygon class="st0" points="5.5,348.1 5.5,343.4 10.8,345.6 			"/>
			<polygon class="st0" points="442.5,394.1 442.5,389.5 438.6,390.8 441.2,394.7 			"/>
			<path class="st1" d="M257.9,491.8L7.8,347.4c-3.5-2-3.1-5.6,1-7.9l167.6-96.7c4-2.3,10.2-2.6,13.7-0.6l250.1,144.4
				c3.5,2,3.1,5.6-1,7.9l-167.5,96.7C267.6,493.6,261.4,493.8,257.9,491.8z"/>
			<path class="st2" d="M257.9,491.2L7.8,346.8c-3.5-2-3.1-5.6,1-7.9l167.6-96.7c4-2.3,10.2-2.6,13.7-0.6L440.2,386
				c3.5,2,3.1,5.6-1,7.9l-167.5,96.7C267.6,493,261.4,493.2,257.9,491.2z"/>
			<path class="st6" d="M171.7,274.8l-11.6-6.7c-1-0.5-0.8-1.5,0.3-2.1l11.1-6.4c1.1-0.6,2.5-0.7,3.7-0.1l11.7,6.7
				c0.9,0.5,0.8,1.5-0.3,2.1l-11.1,6.4C174.3,275.3,172.9,275.3,171.7,274.8z"/>
			<path class="st6" d="M188.2,284.3l-11.6-6.7c-0.9-0.5-0.8-1.5,0.3-2.1l11.1-6.4c1.1-0.6,2.5-0.7,3.7-0.1l11.6,6.7
				c1,0.5,0.8,1.5-0.3,2.1l-11.1,6.4C190.8,284.8,189.4,284.8,188.2,284.3z"/>
			<path class="st6" d="M204.9,293.9l-11.6-6.7c-1-0.5-0.8-1.5,0.3-2.1l11.1-6.4c1.1-0.6,2.5-0.7,3.7-0.2l11.6,6.7
				c1,0.5,0.8,1.5-0.3,2.1l-11.1,6.4C207.4,294.4,206.1,294.5,204.9,293.9z"/>
			<path class="st6" d="M221.2,303.3l-11.6-6.7c-0.9-0.5-0.8-1.5,0.3-2.1l11.1-6.4c1.1-0.6,2.5-0.7,3.7-0.1l11.6,6.7
				c0.9,0.5,0.8,1.5-0.3,2.1l-11.1,6.4C223.7,303.8,222.4,303.9,221.2,303.3z"/>
			<path class="st6" d="M237.7,312.8l-11.6-6.7c-1-0.5-0.8-1.5,0.3-2.1l11.1-6.4c1.1-0.6,2.5-0.7,3.7-0.1l11.6,6.7
				c1,0.5,0.8,1.5-0.3,2.1l-11.1,6.4C240.2,313.3,238.9,313.4,237.7,312.8z"/>
			<path class="st6" d="M254.1,322.4l-11.6-6.7c-0.9-0.5-0.8-1.5,0.3-2.1l11.1-6.4c1.1-0.6,2.5-0.7,3.7-0.1l11.6,6.7
				c1,0.5,0.8,1.5-0.3,2.1l-11.1,6.4C256.7,322.9,255.3,323,254.1,322.4z"/>
			<path class="st6" d="M270.6,331.9l-11.6-6.7c-1-0.5-0.8-1.5,0.3-2.1l11.1-6.4c1.1-0.6,2.5-0.7,3.7-0.1l11.6,6.7
				c1,0.5,0.8,1.5-0.3,2.1l-11.1,6.4C273.2,332.4,271.8,332.4,270.6,331.9z"/>
			<path class="st6" d="M287.1,341.4l-11.6-6.7c-1-0.5-0.8-1.5,0.3-2.1l11.1-6.4c1.1-0.6,2.5-0.7,3.7-0.2l11.6,6.7
				c1,0.5,0.8,1.5-0.3,2.1l-11.1,6.4C289.7,341.9,288.3,341.9,287.1,341.4z"/>
			<path class="st6" d="M303.6,350.9l-11.6-6.7c-1-0.5-0.8-1.5,0.3-2.1l11.1-6.4c1.1-0.6,2.5-0.7,3.7-0.2l11.6,6.7
				c1,0.5,0.8,1.5-0.3,2.1l-11.1,6.4C306.2,351.4,304.8,351.5,303.6,350.9z"/>
			<path class="st6" d="M320.1,360.4l-11.6-6.7c-1-0.5-0.8-1.5,0.3-2.1l11.1-6.4c1.1-0.6,2.5-0.7,3.7-0.1l11.6,6.7
				c1,0.5,0.8,1.5-0.3,2.1l-11.1,6.4C322.7,360.9,321.3,361,320.1,360.4z"/>
			<path class="st6" d="M336.6,370l-11.6-6.7c-1-0.5-0.8-1.5,0.3-2.1l11.1-6.4c1.1-0.6,2.5-0.7,3.7-0.1l11.6,6.7
				c1,0.5,0.8,1.5-0.3,2.1l-11.1,6.4C339.1,370.4,337.8,370.5,336.6,370z"/>
			<path class="st6" d="M353.1,379.5l-11.6-6.7c-1-0.5-0.8-1.5,0.3-2.1l11.1-6.4c1.1-0.6,2.5-0.7,3.7-0.1l11.6,6.7
				c1,0.5,0.8,1.5-0.3,2.1l-11.1,6.4C355.7,380,354.3,380,353.1,379.5z"/>
			<path class="st6" d="M369.5,389l-11.6-6.7c-1-0.5-0.8-1.5,0.3-2.1l11.1-6.4c1.1-0.6,2.5-0.7,3.7-0.2l11.6,6.7
				c1,0.5,0.8,1.5-0.3,2.1l-11.1,6.4C372.1,389.5,370.7,389.5,369.5,389z"/>
			<path class="st6" d="M394,403.1l-19.6-11.3c-1-0.5-0.8-1.5,0.3-2.1l11.1-6.4c1.1-0.6,2.5-0.7,3.7-0.2l19.5,11.3
				c1,0.5,0.8,1.5-0.3,2.1l-11.1,6.4C396.5,403.6,395.2,403.6,394,403.1z"/>
			<path class="st6" d="M180.2,298.1l-11.6-6.7c-1-0.5-0.8-1.5,0.3-2.1l11.1-6.4c1.1-0.6,2.5-0.7,3.7-0.1l11.6,6.7
				c0.9,0.5,0.8,1.5-0.3,2.1l-11.1,6.4C182.8,298.6,181.4,298.7,180.2,298.1z"/>
			<path class="st6" d="M196.7,307.7l-11.6-6.7c-0.9-0.5-0.8-1.5,0.3-2.1l11.1-6.4c1.1-0.6,2.5-0.7,3.7-0.1l11.7,6.7
				c0.9,0.5,0.8,1.5-0.3,2.1l-11.1,6.4C199.3,308.1,197.9,308.2,196.7,307.7z"/>
			<path class="st6" d="M213.2,317.2l-11.6-6.7c-1-0.5-0.8-1.5,0.3-2.1l11.1-6.4c1.1-0.6,2.5-0.7,3.7-0.1l11.6,6.7
				c0.9,0.5,0.8,1.5-0.3,2.1l-11.1,6.4C215.8,317.7,214.4,317.7,213.2,317.2z"/>
			<path class="st6" d="M229.7,326.7l-11.6-6.7c-0.9-0.5-0.8-1.5,0.3-2.1l11.1-6.4c1.1-0.6,2.5-0.7,3.7-0.2l11.6,6.8
				c0.9,0.5,0.8,1.5-0.3,2.1l-11.1,6.4C232.3,327.2,230.9,327.3,229.7,326.7z"/>
			<path class="st6" d="M246.1,336.2l-11.6-6.8c-0.9-0.5-0.8-1.5,0.3-2.1l11.1-6.4c1.1-0.6,2.5-0.7,3.7-0.2l11.7,6.7
				c1,0.5,0.8,1.5-0.3,2.1l-11.1,6.4C248.7,336.7,247.3,336.7,246.1,336.2z"/>
			<path class="st6" d="M262.6,345.7L251,339c-1-0.5-0.8-1.5,0.3-2.1l11.1-6.4c1.1-0.6,2.5-0.7,3.7-0.1l11.6,6.7
				c1,0.5,0.8,1.5-0.3,2.1l-11.1,6.4C265.2,346.2,263.8,346.3,262.6,345.7z"/>
			<path class="st6" d="M279.1,355.2l-11.6-6.7c-1-0.5-0.8-1.5,0.3-2.1l11.1-6.4c1.1-0.6,2.5-0.7,3.7-0.2l11.6,6.7
				c1,0.5,0.8,1.5-0.3,2.1l-11.1,6.4C281.7,355.7,280.3,355.8,279.1,355.2z"/>
			<path class="st6" d="M295.7,364.8l-11.6-6.7c-1-0.5-0.8-1.5,0.3-2.1l11.1-6.4c1.1-0.6,2.5-0.7,3.7-0.1l11.6,6.7
				c1,0.5,0.8,1.5-0.3,2.1l-11.1,6.4C298.2,365.3,296.8,365.3,295.7,364.8z"/>
			<path class="st6" d="M312.2,374.3l-11.6-6.7c-1-0.5-0.8-1.5,0.3-2.1l11.1-6.4c1.1-0.6,2.5-0.7,3.7-0.1l11.6,6.7
				c1,0.5,0.8,1.5-0.3,2.1l-11.1,6.4C314.7,374.8,313.4,374.9,312.2,374.3z"/>
			<path class="st6" d="M328.7,383.9l-11.6-6.7c-1-0.5-0.8-1.5,0.3-2.1l11.1-6.4c1.1-0.6,2.5-0.7,3.7-0.2l11.7,6.7
				c1,0.5,0.8,1.5-0.3,2.1l-11.1,6.4C331.3,384.3,329.9,384.4,328.7,383.9z"/>
			<path class="st6" d="M345.2,393.4l-11.6-6.7c-1-0.5-0.8-1.5,0.3-2.1l11.1-6.4c1.1-0.6,2.5-0.7,3.7-0.1l11.6,6.7
				c1,0.5,0.8,1.5-0.3,2.1l-11.1,6.4C347.8,393.9,346.4,394,345.2,393.4z"/>
			<path class="st6" d="M361.7,402.9l-11.6-6.7c-1-0.5-0.8-1.5,0.3-2.1l11.1-6.4c1.1-0.6,2.5-0.7,3.7-0.2l11.7,6.7
				c1,0.5,0.8,1.5-0.3,2.1l-11.1,6.4C364.3,403.4,362.9,403.5,361.7,402.9z"/>
			<path class="st6" d="M163.7,288.6l-19.6-11.3c-0.9-0.5-0.8-1.5,0.3-2.1l11.1-6.4c1.1-0.6,2.5-0.7,3.7-0.2l19.6,11.3
				c0.9,0.5,0.8,1.5-0.3,2.1l-11.1,6.4C166.2,289.1,164.9,289.1,163.7,288.6z"/>
			<path class="st6" d="M393.2,403.7l-11.6-6.7c-1.1-0.6-2.4-0.6-3.5,0l-11.7,6.8c-1,0.5-1,1.4,0,2l0.9,0.5c0.9,0.5,0.9,1.3,0,1.8
				l-12.5,7.2c-1,0.6-1,1.5,0,2l7.4,4.3c1.1,0.6,2.4,0.6,3.5,0l11.6-6.7l2.4-1.4l1.7-1l1.7-1l10-5.8
				C394.1,405.1,394.1,404.3,393.2,403.7z"/>
			<path class="st6" d="M107.9,311.7L96.2,305c-1-0.5-0.8-1.5,0.3-2.1l11.1-6.4c1.1-0.6,2.5-0.7,3.7-0.1L123,303
				c0.9,0.5,0.8,1.5-0.3,2.1l-11.1,6.4C110.4,312.2,109.1,312.3,107.9,311.7z"/>
			<path class="st6" d="M124.3,321.2l-11.6-6.7c-1-0.5-0.8-1.5,0.3-2.1l11.1-6.4c1.1-0.6,2.5-0.7,3.7-0.1l11.6,6.7
				c0.9,0.5,0.8,1.5-0.3,2.1l-11.1,6.4C126.9,321.7,125.5,321.7,124.3,321.2z"/>
			<path class="st6" d="M140.7,330.7l-11.6-6.7c-1-0.5-0.8-1.5,0.3-2.1l11.1-6.4c1.1-0.6,2.5-0.7,3.7-0.1l11.6,6.7
				c0.9,0.5,0.8,1.5-0.3,2.1l-11.1,6.4C143.3,331.2,141.9,331.2,140.7,330.7z"/>
			<path class="st6" d="M280.7,411.5l-11.6-6.7c-1-0.5-0.8-1.5,0.3-2.1l11.1-6.4c1.1-0.6,2.5-0.7,3.7-0.2l11.6,6.7
				c1,0.5,0.8,1.5-0.3,2.1l-11.1,6.5C283.3,412,281.9,412.1,280.7,411.5z"/>
			<path class="st6" d="M297.2,421l-11.6-6.7c-1-0.5-0.8-1.5,0.3-2.1l11.1-6.4c1.1-0.6,2.5-0.7,3.7-0.1l11.6,6.7
				c1,0.5,0.8,1.5-0.3,2.1l-11.1,6.4C299.7,421.5,298.4,421.6,297.2,421z"/>
			<path class="st6" d="M313.6,430.5l-11.6-6.7c-1-0.5-0.8-1.5,0.3-2.1l11.1-6.4c1.1-0.6,2.5-0.7,3.7-0.1l11.6,6.7
				c1,0.5,0.8,1.5-0.3,2.1l-11.1,6.4C316.2,431,314.8,431,313.6,430.5z"/>
			<path class="st6" d="M330.1,440l-11.6-6.7c-1-0.5-0.8-1.5,0.3-2.1l11.1-6.4c1.1-0.6,2.5-0.7,3.7-0.1l11.6,6.7
				c1,0.5,0.8,1.5-0.3,2.1l-11.1,6.4C332.7,440.5,331.3,440.6,330.1,440z"/>
			<path class="st6" d="M161.4,342.6l-15.9-9.2c-0.9-0.5-0.8-1.5,0.3-2.1l11.1-6.4c1.1-0.6,2.5-0.7,3.7-0.1l15.9,9.2
				c1,0.5,0.8,1.5-0.3,2.1l-11.1,6.4C164,343.1,162.6,343.2,161.4,342.6z"/>
			<path class="st6" d="M264.3,402l-15.9-9.2c-1-0.5-0.8-1.5,0.3-2.1l11.1-6.4c1.1-0.6,2.5-0.7,3.7-0.1l15.9,9.2
				c1,0.5,0.8,1.5-0.3,2.1l-11.1,6.4C266.9,402.5,265.5,402.6,264.3,402z"/>
			<path class="st6" d="M243.6,390.1l-77.4-44.7c-0.9-0.5-0.8-1.5,0.3-2.1l11.1-6.4c1.1-0.6,2.5-0.7,3.7-0.1l77.4,44.7
				c1,0.5,0.8,1.5-0.3,2.1l-11.1,6.4C246.2,390.6,244.8,390.6,243.6,390.1z"/>
			<path class="st6" d="M168.7,309.9l-11.6-6.7c-0.9-0.5-0.8-1.5,0.3-2.1l11.1-6.4c1.1-0.6,2.5-0.7,3.7-0.1l11.7,6.7
				c1,0.5,0.8,1.5-0.3,2.1l-11.1,6.4C171.3,310.4,169.9,310.5,168.7,309.9z"/>
			<path class="st6" d="M185.2,319.4l-11.6-6.7c-0.9-0.5-0.8-1.5,0.3-2.1l11.1-6.4c1.1-0.6,2.5-0.7,3.7-0.2l11.6,6.7
				c1,0.5,0.8,1.5-0.3,2.1l-11.1,6.4C187.7,319.9,186.4,320,185.2,319.4z"/>
			<path class="st6" d="M201.6,328.9l-11.6-6.7c-1-0.5-0.8-1.5,0.3-2.1l11.1-6.4c1.1-0.6,2.5-0.7,3.7-0.1l11.6,6.7
				c1,0.5,0.8,1.5-0.3,2.1l-11.1,6.4C204.2,329.4,202.8,329.5,201.6,328.9z"/>
			<path class="st6" d="M218.1,338.4l-11.6-6.7c-1-0.5-0.8-1.5,0.3-2.1l11.1-6.4c1.1-0.6,2.5-0.7,3.7-0.1l11.6,6.7
				c1,0.5,0.8,1.5-0.3,2.1l-11.1,6.4C220.7,338.9,219.3,339,218.1,338.4z"/>
			<path class="st6" d="M234.6,348l-11.6-6.7c-1-0.5-0.8-1.5,0.3-2.1l11.1-6.4c1.1-0.6,2.5-0.7,3.7-0.1l11.6,6.7
				c1,0.5,0.8,1.5-0.3,2.1l-11.1,6.4C237.1,348.5,235.8,348.5,234.6,348z"/>
			<path class="st6" d="M251,357.5l-11.6-6.7c-1-0.5-0.8-1.5,0.3-2.1l11.1-6.4c1.1-0.6,2.5-0.7,3.7-0.2l11.6,6.7
				c1,0.5,0.8,1.5-0.3,2.1l-11.1,6.4C253.6,358,252.2,358,251,357.5z"/>
			<path class="st6" d="M267.5,367l-11.6-6.7c-1-0.5-0.8-1.5,0.3-2.1l11.1-6.4c1.1-0.6,2.5-0.7,3.7-0.1l11.6,6.7
				c1,0.5,0.8,1.5-0.3,2.1l-11.1,6.4C270.1,367.5,268.7,367.5,267.5,367z"/>
			<path class="st6" d="M284,376.5l-11.6-6.7c-1-0.5-0.8-1.5,0.3-2.1l11.1-6.4c1.1-0.6,2.5-0.7,3.7-0.1l11.6,6.7
				c1,0.5,0.8,1.5-0.3,2.1l-11.1,6.4C286.5,377,285.2,377,284,376.5z"/>
			<path class="st6" d="M300.4,386l-11.6-6.7c-1-0.5-0.8-1.5,0.3-2.1l11.1-6.4c1.1-0.6,2.5-0.7,3.7-0.1l11.6,6.7
				c1,0.5,0.8,1.5-0.3,2.1l-11.1,6.4C303,386.5,301.6,386.5,300.4,386z"/>
			<path class="st6" d="M316.9,395.5l-11.6-6.7c-1-0.5-0.8-1.5,0.3-2.1l11.1-6.4c1.1-0.6,2.5-0.7,3.7-0.2l11.6,6.7
				c1,0.5,0.8,1.5-0.3,2.1l-11.1,6.4C319.5,396,318.1,396,316.9,395.5z"/>
			<path class="st6" d="M333.4,405l-11.6-6.7c-1-0.5-0.8-1.5,0.3-2.1l11.1-6.4c1.1-0.6,2.5-0.7,3.7-0.1l11.6,6.7
				c1,0.5,0.8,1.5-0.3,2.1l-11.1,6.4C335.9,405.5,334.6,405.5,333.4,405z"/>
			<path class="st6" d="M349.8,414.5l-11.6-6.7c-1-0.5-0.8-1.5,0.3-2.1l11.1-6.4c1.1-0.6,2.5-0.7,3.7-0.1l11.6,6.7
				c1,0.5,0.8,1.5-0.3,2.1l-11.1,6.5C352.4,415,351,415.1,349.8,414.5z"/>
			<path class="st6" d="M152.2,300.4l-24.1-13.9c-1-0.5-0.8-1.5,0.3-2.1l11.1-6.4c1.1-0.6,2.5-0.7,3.7-0.1l24.1,13.9
				c1,0.5,0.8,1.5-0.3,2.1l-11.1,6.4C154.8,300.9,153.4,301,152.2,300.4z"/>
			<path class="st6" d="M144.5,314.4l-11.6-6.7c-0.9-0.5-0.8-1.5,0.3-2.1l11.1-6.4c1.1-0.6,2.5-0.7,3.7-0.2l11.6,6.7
				c0.9,0.5,0.8,1.5-0.3,2.1l-11.1,6.4C147.1,314.9,145.7,315,144.5,314.4z"/>
			<path class="st6" d="M161,323.9l-11.6-6.7c-0.9-0.5-0.8-1.5,0.3-2.1l11.1-6.4c1.1-0.6,2.5-0.7,3.7-0.1l11.6,6.7
				c1,0.5,0.8,1.5-0.3,2.1l-11.1,6.4C163.6,324.4,162.2,324.5,161,323.9z"/>
			<path class="st6" d="M177.5,333.4l-11.7-6.7c-1-0.5-0.8-1.5,0.3-2.1l11.1-6.4c1.1-0.6,2.5-0.7,3.7-0.2l11.6,6.7
				c1,0.5,0.8,1.5-0.3,2.1l-11.1,6.4C180,333.9,178.7,334,177.5,333.4z"/>
			<path class="st6" d="M193.9,343l-11.6-6.7c-1-0.5-0.8-1.5,0.3-2.1l11.1-6.4c1.1-0.6,2.5-0.7,3.7-0.1l11.6,6.7
				c0.9,0.5,0.8,1.5-0.3,2.1l-11.1,6.4C196.5,343.4,195.1,343.5,193.9,343z"/>
			<path class="st6" d="M210.4,352.5l-11.6-6.7c-0.9-0.5-0.8-1.5,0.3-2.1l11.1-6.4c1.1-0.6,2.5-0.7,3.7-0.1l11.6,6.7
				c0.9,0.5,0.8,1.5-0.3,2.1l-11.1,6.4C213,353,211.6,353,210.4,352.5z"/>
			<path class="st6" d="M226.9,362l-11.6-6.7c-0.9-0.5-0.8-1.5,0.3-2.1l11.1-6.4c1.1-0.6,2.5-0.7,3.7-0.1l11.6,6.7
				c0.9,0.5,0.8,1.5-0.3,2.1l-11.1,6.4C229.4,362.5,228.1,362.5,226.9,362z"/>
			<path class="st6" d="M243.3,371.5l-11.6-6.7c-0.9-0.5-0.8-1.5,0.3-2.1l11.1-6.4c1.1-0.6,2.5-0.7,3.7-0.1l11.6,6.7
				c1,0.5,0.8,1.5-0.3,2.1l-11.1,6.4C245.9,372,244.5,372,243.3,371.5z"/>
			<path class="st6" d="M259.8,381l-11.6-6.7c-0.9-0.5-0.8-1.5,0.3-2.1l11.1-6.4c1.1-0.6,2.5-0.7,3.7-0.2l11.6,6.7
				c1,0.5,0.8,1.5-0.3,2.1l-11.1,6.4C262.4,381.5,261,381.5,259.8,381z"/>
			<path class="st6" d="M276.3,390.5l-11.6-6.7c-1-0.5-0.8-1.5,0.3-2.1l11.1-6.4c1.1-0.6,2.5-0.7,3.7-0.1l11.6,6.7
				c1,0.5,0.8,1.5-0.3,2.1l-11.1,6.4C278.8,391,277.5,391,276.3,390.5z"/>
			<path class="st6" d="M292.7,400l-11.6-6.7c-1-0.5-0.8-1.5,0.3-2.1l11.1-6.4c1.1-0.6,2.5-0.7,3.7-0.2l11.6,6.7
				c1,0.5,0.8,1.5-0.3,2.1l-11.1,6.4C295.3,400.5,293.9,400.5,292.7,400z"/>
			<path class="st6" d="M309.2,409.5l-11.6-6.7c-1-0.5-0.8-1.5,0.3-2.1l11.1-6.4c1.1-0.6,2.5-0.7,3.7-0.1l11.6,6.7
				c1,0.5,0.8,1.5-0.3,2.1l-11.1,6.4C311.8,410,310.4,410,309.2,409.5z"/>
			<path class="st6" d="M346,430.8l-32-18.5c-1-0.5-0.8-1.5,0.3-2.1l11.1-6.4c1.1-0.6,2.5-0.7,3.7-0.1l32,18.5
				c1,0.5,0.8,1.5-0.3,2.1l-11.1,6.4C348.6,431.3,347.2,431.3,346,430.8z"/>
			<path class="st6" d="M128.1,304.9l-15.9-9.2c-1-0.5-0.8-1.5,0.3-2.1l11.1-6.4c1.1-0.6,2.5-0.7,3.7-0.2l15.9,9.2
				c0.9,0.5,0.8,1.5-0.3,2.1l-11.1,6.4C130.7,305.4,129.3,305.5,128.1,304.9z"/>
			<path class="st6" d="M410.5,393.5l-233.8-135c-1-0.5-0.8-1.5,0.3-2.1l5.6-3.2c1.1-0.6,2.5-0.7,3.7-0.2L420,388
				c1,0.5,0.8,1.5-0.3,2.1l-5.5,3.2C413.1,394,411.7,394.1,410.5,393.5z"/>
			<path class="st0" d="M265.7,408.9c-0.3,0.7-0.9,1.3-1.6,1.7l-64.3,37.1c-2.2,1.2-4.8,1.3-7.1,0.3l-110-63.5
				c-0.5-0.2-0.8-0.6-1.1-1.1c-0.4-1,0.2-2.1,1.6-3l64.3-37.2c2.2-1.2,4.8-1.3,7.1-0.3l110,63.5C265.5,406.9,266,407.9,265.7,408.9z
				"/>
			<path class="st7" d="M265.7,408.9c-0.3,0.7-0.9,1.3-1.6,1.7l-64.3,37.1c-2.2,1.2-4.8,1.3-7.1,0.3l-110-63.5
				c-0.5-0.2-0.8-0.6-1.1-1.1c0.3-0.7,0.9-1.3,1.6-1.7l64.3-37.1c2.2-1.2,4.8-1.3,7.1-0.3l110,63.5
				C265.1,408,265.4,408.4,265.7,408.9z"/>
			<path class="st6" d="M428.3,383.3l-233.8-135c-1-0.8-1.7-2-1.7-3.3v-2.8c0-1.3,0.8-1.9,1.7-1.3l233.8,135c1.1,0.8,1.7,2,1.7,3.3
				v2.8C430,383.3,429.3,383.9,428.3,383.3z"/>
			<path class="st8" d="M229.8,235l-23.1-13.3c-2.9-1.7-5.2-6.2-5.2-10v-24.8c0-3.9,2.4-5.6,5.2-4l23.1,13.4c2.9,1.7,5.2,6.2,5.2,10
				V231C235,234.9,232.7,236.6,229.8,235z"/>
			<path class="st8" d="M229.7,178.2l-23.1-13.3c-2.9-1.7-5.2-8.5-5.2-11.8v-28.9c0-3.9,2.4-5.6,5.2-4l23.1,13.3
				c2.9,1.7,5.2,6.2,5.2,10v28.9C235,175.8,232.6,179.9,229.7,178.2z"/>
			<path class="st9" d="M218.3,158.9c-4.7-2.7-8.5-9.3-8.5-14.8s3.8-7.6,8.5-4.9s8.5,9.3,8.5,14.8S223,161.6,218.3,158.9z
				 M218.3,141.8c-3.5-2-6.3-0.4-6.3,3.7c0.2,4.5,2.6,8.6,6.3,11c3.5,2,6.3,0.4,6.3-3.6C224.4,148.3,222.1,144.2,218.3,141.8z"/>
			<polygon class="st9" points="220.7,154.9 216.8,148.8 216.8,143.7 219,144.9 219,148.9 222.1,153.8 			"/>
			<path class="st8" d="M229.7,117.1l-23.1-13.3c-2.9-1.7-5.2-9.2-5.2-12.6V64.6c0-3.3,2.4-4.7,5.2-3l23.1,13.3c3.1,2,5,5.4,5.2,9.1
				v26.6C234.9,113.9,232.6,118.7,229.7,117.1z"/>
			<path class="st9" d="M218.2,85.2c-1.4-0.8-2.5-0.2-2.5,1.5c0.1,1.8,1,3.4,2.5,4.3c1.4,0.8,2.5,0.2,2.5-1.4
				C220.6,87.8,219.6,86.1,218.2,85.2z M224.9,86.2l-2-1.2c-0.3-0.2-0.6-0.6-0.7-0.9l-0.5-2.1c-0.1-0.4-0.3-0.7-0.7-0.9l-5.7-3.3
				c-0.3-0.2-0.6-0.1-0.7,0.2l-0.5,1.5c-0.1,0.2-0.3,0.3-0.6,0.2c0,0-0.1,0-0.1-0.1l-2-1.2c-0.9-0.5-1.7-0.1-1.7,1v8.7
				c0.1,1.2,0.7,2.3,1.7,2.9l13.4,7.8c0.9,0.5,1.7,0.1,1.7-1V89C226.5,87.9,225.9,86.8,224.9,86.2L224.9,86.2z M218.2,92.9
				c-2.5-1.6-4-4.3-4.2-7.3c0-2.7,1.9-3.8,4.2-2.4c2.5,1.6,4,4.3,4.2,7.3C222.3,93.2,220.5,94.3,218.2,92.9L218.2,92.9z M224.3,89.1
				c-0.3-0.2-0.6-0.6-0.6-1c0-0.4,0.3-0.5,0.6-0.3c0.3,0.2,0.6,0.6,0.6,1C224.9,89.1,224.6,89.3,224.3,89.1L224.3,89.1z"/>
			<path class="st9" d="M225.4,210.8c0,4.5-7.1,10.4-7.1,10.4s-7.1-14-7.1-18.5s3.2-6.3,7.1-4.1
				C222.5,201.2,225.2,205.8,225.4,210.8z"/>
			<ellipse transform="matrix(0.866 -0.5 0.5 0.866 -73.9316 136.8328)" class="st8" cx="218.4" cy="206.4" rx="3.8" ry="6.5"/>
			<path class="st8" d="M392.9,271.4l-139.6-80.6c-2.4-1.4-4.3-5-4.3-8.1V88.8c0-3.1,1.9-4.6,4.3-3.2l139.6,80.6
				c2.4,1.4,4.3,5,4.3,8.1v93.8C397.2,271.3,395.3,272.8,392.9,271.4z"/>
			<path class="st3" d="M376.8,203.2l-108.2-62.5c-2.6-1.5-4.8-5.6-4.8-9.1v-7.1c0-3.5,2.1-5.1,4.8-3.6l108.2,62.5
				c2.6,1.5,4.7,5.6,4.7,9.1v7.1C381.5,203.1,379.4,204.7,376.8,203.2z"/>
			<path class="st9" d="M318,201l-49.4-28.5c-2.6-1.5-4.8-5.6-4.8-9.1v-7c0-3.5,2.1-5.1,4.8-3.6l49.4,28.5c2.6,1.5,4.7,5.6,4.7,9.1
				v7C322.7,200.9,320.6,202.5,318,201z"/>
			
				<linearGradient id="SVGID_2_" gradientUnits="userSpaceOnUse" x1="288.7047" y1="123.592" x2="288.7047" y2="78.392" gradientTransform="matrix(0.87 0.5 0 -1.15 84.2751 237.3717)">
				<stop  offset="0" style="stop-color:#E9EAF2;stop-opacity:0.8"/>
				<stop  offset="1" style="stop-color:#E9EAF2;stop-opacity:0"/>
			</linearGradient>
			<path class="st10" d="M421.7,292.1c0,0-52.6,11.6-95.2-35.7s-77.3-41.2-77.3-41.2v29.5l172.4,99.5V292.1z"/>
			<path class="st11" d="M421.7,292.1c0,0-52.6,11.6-95.2-35.7s-77.3-41.2-77.3-41.2"/>
		</g>
		<g id="Men_12">
			<path id="_Контур_" class="st12" d="M249,44.8c-1.5,2.8-3.4,5.3-5.6,7.6c-0.6,0.7-5.2-1.1-4.3-1.6s4-4.7,5.5-7.5
				c1.3-3.4,2.4-6.8,3.2-10.3c0.9-3.5,1.8-8.5,2.5-10.9c0.4-1.8,1.8-3.2,3.5-3.6c1.7-0.4,2.8,0.1,2.4,2.1
				C255.8,24.1,253.1,37.9,249,44.8z"/>
			<path class="st13" d="M251.6,98.7c-1.4,1.2-3.6,0.1-3.7,0.2c-1.7,1.6-3.5,3-5.3,4.4c-0.9,0.7-2.3,1.6-2,3
				c0.4,2.4,4.3,1.7,5.8,0.9s2.7-2,4-2.8c1-0.6,2-0.9,2.1-2.2C252.7,101.5,251.9,98.6,251.6,98.7z"/>
			<path class="st14" d="M252.6,101.7c-0.2,1.2-1.1,1.5-2.1,2.1c-1.4,0.9-2.6,2.1-4.1,2.9s-4.7,1.4-5.7-0.4c0.5,2.3,4.3,1.6,5.8,0.9
				s2.7-2,4-2.8c1-0.6,2-0.9,2.1-2.2C252.6,102.1,252.6,101.9,252.6,101.7z"/>
			<path class="st13" d="M237.1,90.3c-1.4,1.2-3.9-0.1-4.1,0c-1.5,1.5-3.1,2.9-4.7,4.3c-0.9,0.7-2.3,1.7-2,3
				c0.4,2.4,4.3,1.7,5.8,0.9s2.6-2,4-2.8c1-0.6,2-0.9,2.1-2.2C238.3,92.7,237.3,90.2,237.1,90.3z"/>
			<path class="st14" d="M238.2,93.2c-0.2,1.2-1.1,1.5-2.1,2.1c-1.4,0.9-2.6,2.1-4.1,2.9s-4.7,1.4-5.7-0.4c0.5,2.3,4.3,1.6,5.8,0.9
				s2.6-2,4-2.8c1-0.6,2-0.9,2.1-2.2C238.2,93.5,238.2,93.3,238.2,93.2z"/>
			<path id="_Контур_2" class="st9" d="M270.8,52.7c1.6,9.9-2.8,13.6-8.6,15.8c-4.1,1.5-10,3.9-10,3.9s0.1,2.2,0.1,7.1
				c0,4.3-0.5,20-0.5,20c-1.4,0.7-3,0.7-4.4,0c0,0-2.3-12.1-2.8-17.5c-0.7-7.4-1.8-12.2-1.4-13.8c0.3-1.4,8.4-5.4,11-7.5l-16.9,5.7
				c0.3,1.8,0.5,3.7,0.5,5.6c-0.1,5.8-0.5,18.5-0.5,18.5s-2.3,1.7-4.3,0c0,0-4.3-25.1-3.7-28.4c0.5-3.2,15.4-9.6,18-11.8
				c0.9-0.8,2.1-1.1,3.3-0.9L270.8,52.7z"/>
			<g id="_Группа_">
				<g id="_Группа_2">
					<path id="_Контур_3" class="st15" d="M230.3,56.8l11.4-6.5c0.2-0.1,0.5-0.1,0.6,0l19.9,11.5l-11.7,6.7L230.3,56.8z"/>
					<path class="st16" d="M251.1,66.1l0.9,0.5c0.1,0,0.1,0.1,0,0.2l-0.8,0.5c-0.1,0-0.2,0-0.3,0l-0.9-0.5c-0.1,0-0.1-0.1,0-0.2
						l0.8-0.5C250.9,66,251,66,251.1,66.1z"/>
					<path class="st16" d="M249.9,65.4l0.9,0.5c0.1,0,0.1,0.1,0,0.2l-0.8,0.5c-0.1,0-0.2,0-0.3,0l-0.9-0.5c-0.1,0-0.1-0.1,0-0.2
						l0.8-0.5C249.7,65.4,249.8,65.4,249.9,65.4z"/>
					<path class="st16" d="M248.6,64.6l0.9,0.5c0.1,0,0.1,0.1,0,0.2l-0.8,0.5c-0.1,0-0.2,0-0.3,0l-0.9-0.5c-0.1,0-0.1-0.1,0-0.2
						l0.8-0.5C248.5,64.6,248.6,64.6,248.6,64.6z"/>
					<path class="st16" d="M247.4,63.9l0.9,0.5c0.1,0,0.1,0.1,0,0.2l-0.8,0.5c-0.1,0-0.2,0-0.3,0l-0.9-0.5c-0.1,0-0.1-0.1,0-0.2
						l0.8-0.5C247.2,63.9,247.3,63.9,247.4,63.9z"/>
					<path class="st16" d="M246.2,63.2l0.9,0.5c0.1,0,0.1,0.1,0,0.2l-0.8,0.5c-0.1,0-0.2,0-0.3,0l-0.9-0.5c-0.1,0-0.1-0.1,0-0.2
						l0.8-0.5C246,63.2,246.1,63.2,246.2,63.2z"/>
					<path class="st16" d="M245,62.5l0.9,0.5c0.1,0,0.1,0.1,0,0.2l-0.8,0.5c-0.1,0-0.2,0-0.3,0l-0.9-0.5c-0.1,0-0.1-0.1,0-0.2
						l0.8-0.5C244.8,62.5,244.9,62.5,245,62.5z"/>
					<path class="st16" d="M243.8,61.8l0.9,0.5c0.1,0,0.1,0.1,0,0.2l-0.8,0.5c-0.1,0-0.2,0-0.3,0l-0.9-0.5c-0.1,0-0.1-0.1,0-0.2
						l0.8-0.5C243.6,61.8,243.7,61.8,243.8,61.8z"/>
					<path class="st16" d="M242.5,61.1l0.9,0.5c0.1,0,0.1,0.1,0,0.2l-0.8,0.5c-0.1,0-0.2,0-0.3,0l-0.9-0.5c-0.1,0-0.1-0.1,0-0.2
						l0.8-0.5C242.4,61.1,242.5,61.1,242.5,61.1z"/>
					<path class="st16" d="M241.3,60.4l0.9,0.5c0.1,0,0.1,0.1,0,0.2l-0.8,0.5c-0.1,0-0.2,0-0.3,0l-0.9-0.5c-0.1,0-0.1-0.1,0-0.2
						l0.8-0.5C241.1,60.4,241.2,60.4,241.3,60.4z"/>
					<path class="st16" d="M240.1,59.7l0.9,0.5c0.1,0,0.1,0.1,0,0.2l-0.8,0.5c-0.1,0-0.2,0-0.3,0l-0.9-0.5c-0.1,0-0.1-0.1,0-0.2
						l0.8-0.5C239.9,59.7,240,59.7,240.1,59.7z"/>
					<path class="st16" d="M238.9,59l0.9,0.5c0.1,0,0.1,0.1,0,0.2l-0.8,0.5c-0.1,0-0.2,0-0.3,0l-0.9-0.5c-0.1,0-0.1-0.1,0-0.2
						l0.8-0.5C238.7,59,238.8,59,238.9,59z"/>
					<path class="st16" d="M237.6,58.3l0.9,0.5c0.1,0,0.1,0.1,0,0.2l-0.8,0.5c-0.1,0-0.2,0-0.3,0l-0.9-0.5c-0.1,0-0.1-0.1,0-0.2
						l0.8-0.5C237.5,58.3,237.6,58.3,237.6,58.3z"/>
					<path class="st16" d="M236.4,57.6l0.9,0.5c0.1,0,0.1,0.1,0,0.2l-0.8,0.5c-0.1,0-0.2,0-0.3,0l-0.9-0.5c-0.1,0-0.1-0.1,0-0.2
						l0.8-0.5C236.2,57.5,236.3,57.5,236.4,57.6z"/>
					<path class="st16" d="M234.6,56.5l1.4,0.8c0.1,0,0.1,0.1,0,0.2l-0.8,0.5c-0.1,0-0.2,0-0.3,0l-1.4-0.8c-0.1,0-0.1-0.1,0-0.2
						l0.8-0.5C234.4,56.5,234.5,56.5,234.6,56.5z"/>
					<path class="st16" d="M250.5,64.3l0.9,0.5c0.1,0,0.1,0.1,0,0.2l-0.8,0.5c-0.1,0.1-0.2,0.1-0.3,0l-0.9-0.5c-0.1,0-0.1-0.1,0-0.2
						l0.8-0.5C250.3,64.3,250.4,64.3,250.5,64.3z"/>
					<path class="st16" d="M249.3,63.6l0.9,0.5c0.1,0,0.1,0.1,0,0.2l-0.8,0.5c-0.1,0-0.2,0-0.3,0l-0.9-0.5c-0.1,0-0.1-0.1,0-0.2
						l0.8-0.5C249.1,63.6,249.2,63.6,249.3,63.6z"/>
					<path class="st16" d="M248,62.9l0.9,0.5c0.1,0,0.1,0.1,0,0.2l-0.8,0.5c-0.1,0-0.2,0-0.3,0l-0.9-0.5c-0.1,0-0.1-0.1,0-0.2
						l0.8-0.5C247.8,62.9,247.9,62.9,248,62.9z"/>
					<path class="st16" d="M246.8,62.2l0.9,0.5c0.1,0,0.1,0.1,0,0.2l-0.8,0.5c-0.1,0-0.2,0-0.3,0l-0.9-0.5c-0.1,0-0.1-0.1,0-0.2
						l0.8-0.5C246.6,62.2,246.7,62.2,246.8,62.2z"/>
					<path class="st16" d="M245.6,61.5l0.9,0.5c0.1,0,0.1,0.1,0,0.2l-0.8,0.5c-0.1,0-0.2,0-0.3,0l-0.9-0.5c-0.1,0-0.1-0.1,0-0.2
						l0.8-0.5C245.4,61.5,245.5,61.5,245.6,61.5z"/>
					<path class="st16" d="M244.4,60.8l0.9,0.5c0.1,0,0.1,0.1,0,0.2l-0.8,0.5c-0.1,0-0.2,0-0.3,0l-0.9-0.5c-0.1,0-0.1-0.1,0-0.2
						l0.8-0.5C244.2,60.8,244.3,60.8,244.4,60.8z"/>
					<path class="st16" d="M243.1,60.1l0.9,0.5c0.1,0,0.1,0.1,0,0.2l-0.8,0.5c-0.1,0-0.2,0-0.3,0l-0.9-0.5c-0.1,0-0.1-0.1,0-0.2
						l0.8-0.5C242.9,60.1,243,60.1,243.1,60.1z"/>
					<path class="st16" d="M241.9,59.4l0.9,0.5c0.1,0,0.1,0.1,0,0.2l-0.8,0.5c-0.1,0-0.2,0-0.3,0l-0.9-0.5c-0.1,0-0.1-0.1,0-0.2
						l0.8-0.5C241.7,59.4,241.8,59.4,241.9,59.4z"/>
					<path class="st16" d="M240.7,58.7l0.9,0.5c0.1,0,0.1,0.1,0,0.2l-0.8,0.5c-0.1,0-0.2,0-0.3,0l-0.9-0.5c-0.1,0-0.1-0.1,0-0.2
						l0.8-0.5C240.5,58.6,240.6,58.6,240.7,58.7z"/>
					<path class="st16" d="M239.5,58l0.9,0.5c0.1,0,0.1,0.1,0,0.2l-0.8,0.5c-0.1,0-0.2,0-0.3,0l-0.9-0.5c-0.1,0-0.1-0.1,0-0.2
						l0.8-0.5C239.3,57.9,239.4,57.9,239.5,58z"/>
					<path class="st16" d="M238.2,57.3l0.9,0.5c0.1,0,0.1,0.1,0,0.2l-0.8,0.5c-0.1,0-0.2,0-0.3,0l-0.9-0.5c-0.1,0-0.1-0.1,0-0.2
						l0.8-0.5C238,57.2,238.1,57.2,238.2,57.3z"/>
					<path class="st16" d="M237,56.6l0.9,0.5c0.1,0,0.1,0.1,0,0.2l-0.8,0.5c-0.1,0-0.2,0-0.3,0l-0.9-0.5c-0.1,0-0.1-0.1,0-0.2
						l0.8-0.5C236.8,56.5,236.9,56.5,237,56.6z"/>
					<path class="st16" d="M251.7,65l1.5,0.8c0.1,0,0.1,0.1,0,0.2l-0.8,0.5c-0.1,0-0.2,0-0.3,0l-1.5-0.8c-0.1,0-0.1-0.1,0-0.2
						l0.8-0.5C251.5,65,251.6,65,251.7,65z"/>
					<path class="st16" d="M234.7,56.5l0.9,0.5c0.1,0,0.2,0,0.3,0l0.9-0.5c0,0,0.1-0.1,0-0.1c0,0,0,0,0,0h-0.1c-0.1,0-0.1-0.1,0-0.1
						l0.9-0.5c0.1,0,0.1-0.1,0-0.2l-0.6-0.3c-0.1,0-0.2,0-0.3,0l-0.9,0.5l-0.2,0.1l-0.1,0.1l-0.1,0.1l-0.7,0.4
						C234.6,56.4,234.6,56.5,234.7,56.5z"/>
					<path class="st16" d="M255.8,63.3l0.9,0.5c0.1,0,0.1,0.1,0,0.2l-0.8,0.5c-0.1,0.1-0.2,0.1-0.3,0l-0.9-0.5c-0.1,0-0.1-0.1,0-0.2
						l0.8-0.5C255.6,63.3,255.7,63.3,255.8,63.3z"/>
					<path class="st16" d="M254.6,62.6l0.9,0.5c0.1,0,0.1,0.1,0,0.2l-0.8,0.5c-0.1,0-0.2,0-0.3,0l-0.9-0.5c-0.1,0-0.1-0.1,0-0.2
						l0.8-0.5C254.4,62.6,254.5,62.6,254.6,62.6z"/>
					<path class="st16" d="M253.4,61.9l0.9,0.5c0.1,0,0.1,0.1,0,0.2l-0.8,0.5c-0.1,0-0.2,0-0.3,0l-0.9-0.5c-0.1,0-0.1-0.1,0-0.2
						l0.8-0.5C253.2,61.9,253.3,61.9,253.4,61.9z"/>
					<path class="st16" d="M243,55.9l0.9,0.5c0.1,0,0.1,0.1,0,0.2l-0.8,0.5c-0.1,0-0.2,0-0.3,0l-0.9-0.5c-0.1,0-0.1-0.1,0-0.2
						l0.8-0.5C242.8,55.9,242.9,55.9,243,55.9z"/>
					<path class="st16" d="M241.8,55.2l0.9,0.5c0.1,0,0.1,0.1,0,0.2l-0.8,0.5c-0.1,0-0.2,0-0.3,0l-0.9-0.5c-0.1,0-0.1-0.1,0-0.2
						l0.8-0.5C241.6,55.2,241.7,55.2,241.8,55.2z"/>
					<path class="st16" d="M240.6,54.5l0.9,0.5c0.1,0,0.1,0.1,0,0.2l-0.8,0.5c-0.1,0-0.2,0-0.3,0l-0.9-0.5c-0.1,0-0.1-0.1,0-0.2
						l0.8-0.5C240.4,54.5,240.5,54.5,240.6,54.5z"/>
					<path class="st16" d="M239.3,53.8l0.9,0.5c0.1,0,0.1,0.1,0,0.2l-0.8,0.5c-0.1,0-0.2,0-0.3,0l-0.9-0.5c-0.1,0-0.1-0.1,0-0.2
						l0.8-0.5C239.2,53.8,239.3,53.8,239.3,53.8z"/>
					<path class="st16" d="M251.9,61l1.2,0.7c0.1,0,0.1,0.1,0,0.2l-0.8,0.5c-0.1,0-0.2,0-0.3,0l-1.2-0.7c-0.1,0-0.1-0.1,0-0.2
						l0.8-0.5C251.7,61,251.8,61,251.9,61z"/>
					<path class="st16" d="M244.2,56.6l1.2,0.7c0.1,0,0.1,0.1,0,0.2l-0.8,0.5c-0.1,0-0.2,0-0.3,0l-1.2-0.7c-0.1,0-0.1-0.1,0-0.2
						l0.8-0.5C244,56.6,244.1,56.6,244.2,56.6z"/>
					<path class="st16" d="M245.8,57.5l5.8,3.3c0.1,0,0.1,0.1,0,0.2l-0.8,0.5c-0.1,0-0.2,0-0.3,0l-5.8-3.3c-0.1,0-0.1-0.1,0-0.2
						l0.8-0.5C245.6,57.5,245.7,57.5,245.8,57.5z"/>
					<path class="st16" d="M251.3,63.4l0.9,0.5c0.1,0,0.1,0.1,0,0.2l-0.8,0.5c-0.1,0-0.2,0-0.3,0l-0.9-0.5c-0.1,0-0.1-0.1,0-0.2
						l0.8-0.5C251.1,63.4,251.2,63.4,251.3,63.4z"/>
					<path class="st16" d="M250.1,62.7l0.9,0.5c0.1,0,0.1,0.1,0,0.2l-0.8,0.5c-0.1,0-0.2,0-0.3,0l-0.9-0.5c-0.1,0-0.1-0.1,0-0.2
						l0.8-0.5C249.9,62.7,250,62.7,250.1,62.7z"/>
					<path class="st16" d="M248.9,62l0.9,0.5c0.1,0,0.1,0.1,0,0.2l-0.8,0.5c-0.1,0-0.2,0-0.3,0l-0.9-0.5c-0.1,0-0.1-0.1,0-0.2
						l0.8-0.5C248.7,62,248.8,62,248.9,62z"/>
					<path class="st16" d="M247.7,61.3l0.9,0.5c0.1,0,0.1,0.1,0,0.2l-0.8,0.5c-0.1,0-0.2,0-0.3,0l-0.9-0.5c-0.1,0-0.1-0.1,0-0.2
						l0.8-0.5C247.5,61.3,247.6,61.3,247.7,61.3z"/>
					<path class="st16" d="M246.4,60.6l0.9,0.5c0.1,0,0.1,0.1,0,0.2l-0.8,0.5c-0.1,0-0.2,0-0.3,0l-0.9-0.5c-0.1,0-0.1-0.1,0-0.2
						l0.8-0.5C246.3,60.6,246.4,60.6,246.4,60.6z"/>
					<path class="st16" d="M245.2,59.9l0.9,0.5c0.1,0,0.1,0.1,0,0.2l-0.8,0.5c-0.1,0-0.2,0-0.3,0l-0.9-0.5c-0.1,0-0.1-0.1,0-0.2
						l0.8-0.5C245,59.9,245.1,59.9,245.2,59.9z"/>
					<path class="st16" d="M244,59.2l0.9,0.5c0.1,0,0.1,0.1,0,0.2l-0.8,0.5c-0.1,0-0.2,0-0.3,0l-0.9-0.5c-0.1,0-0.1-0.1,0-0.2
						l0.8-0.5C243.8,59.2,243.9,59.2,244,59.2z"/>
					<path class="st16" d="M242.8,58.5l0.9,0.5c0.1,0,0.1,0.1,0,0.2l-0.8,0.5c-0.1,0.1-0.2,0.1-0.3,0l-0.9-0.5c-0.1,0-0.1-0.1,0-0.2
						l0.8-0.5C242.6,58.5,242.7,58.5,242.8,58.5z"/>
					<path class="st16" d="M241.5,57.8l0.9,0.5c0.1,0,0.1,0.1,0,0.2l-0.8,0.5c-0.1,0-0.2,0-0.3,0l-0.9-0.5c-0.1,0-0.1-0.1,0-0.2
						l0.8-0.5C241.4,57.8,241.5,57.8,241.5,57.8z"/>
					<path class="st16" d="M240.3,57.1l0.9,0.5c0.1,0,0.1,0.1,0,0.2l-0.8,0.5c-0.1,0-0.2,0-0.3,0l-0.9-0.5c-0.1,0-0.1-0.1,0-0.2
						l0.8-0.5C240.1,57.1,240.2,57.1,240.3,57.1z"/>
					<path class="st16" d="M239.1,56.4l0.9,0.5c0.1,0,0.1,0.1,0,0.2l-0.8,0.5c-0.1,0-0.2,0-0.3,0l-0.9-0.5c-0.1,0-0.1-0.1,0-0.2
						l0.8-0.5C238.9,56.4,239,56.4,239.1,56.4z"/>
					<path class="st16" d="M237.9,55.7l0.9,0.5c0.1,0,0.1,0.1,0,0.2l-0.8,0.5c-0.1,0-0.2,0-0.3,0l-0.9-0.5c-0.1,0-0.1-0.1,0-0.2
						l0.8-0.5C237.7,55.6,237.8,55.6,237.9,55.7z"/>
					<path class="st16" d="M252.6,64.2l1.8,1c0.1,0,0.1,0.1,0,0.2l-0.8,0.5c-0.1,0-0.2,0-0.3,0l-1.8-1c-0.1,0-0.1-0.1,0-0.2l0.8-0.5
						C252.4,64.1,252.5,64.1,252.6,64.2z"/>
					<path class="st16" d="M253.1,63.1l0.9,0.5c0.1,0,0.1,0.1,0,0.2l-0.8,0.5c-0.1,0-0.2,0-0.3,0l-0.9-0.5c-0.1,0-0.1-0.1,0-0.2
						l0.8-0.5C252.9,63.1,253,63.1,253.1,63.1z"/>
					<path class="st16" d="M251.9,62.4l0.9,0.5c0.1,0,0.1,0.1,0,0.2l-0.8,0.5c-0.1,0-0.2,0-0.3,0l-0.9-0.5c-0.1,0-0.1-0.1,0-0.2
						l0.8-0.5C251.7,62.4,251.8,62.4,251.9,62.4z"/>
					<path class="st16" d="M250.7,61.7l0.9,0.5c0.1,0,0.1,0.1,0,0.2l-0.8,0.5c-0.1,0-0.2,0-0.3,0l-0.9-0.5c-0.1,0-0.1-0.1,0-0.2
						l0.8-0.5C250.5,61.7,250.6,61.7,250.7,61.7z"/>
					<path class="st16" d="M249.5,61l0.9,0.5c0.1,0,0.1,0.1,0,0.2l-0.8,0.5c-0.1,0.1-0.2,0.1-0.3,0l-0.9-0.5c-0.1,0-0.1-0.1,0-0.2
						l0.8-0.5C249.3,61,249.4,61,249.5,61z"/>
					<path class="st16" d="M248.2,60.3l0.9,0.5c0.1,0,0.1,0.1,0,0.2l-0.8,0.5c-0.1,0-0.2,0-0.3,0l-0.9-0.5c-0.1,0-0.1-0.1,0-0.2
						l0.8-0.5C248,60.3,248.1,60.3,248.2,60.3z"/>
					<path class="st16" d="M247,59.6l0.9,0.5c0.1,0,0.1,0.1,0,0.2l-0.8,0.5c-0.1,0-0.2,0-0.3,0l-0.9-0.5c-0.1,0-0.1-0.1,0-0.2
						l0.8-0.5C246.8,59.6,246.9,59.6,247,59.6z"/>
					<path class="st16" d="M245.8,58.9l0.9,0.5c0.1,0,0.1,0.1,0,0.2l-0.8,0.5c-0.1,0-0.2,0-0.3,0l-0.9-0.5c-0.1,0-0.1-0.1,0-0.2
						l0.8-0.5C245.6,58.8,245.7,58.8,245.8,58.9z"/>
					<path class="st16" d="M244.6,58.2l0.9,0.5c0.1,0,0.1,0.1,0,0.2l-0.8,0.5c-0.1,0-0.2,0-0.3,0l-0.9-0.5c-0.1,0-0.1-0.1,0-0.2
						l0.8-0.5C244.4,58.1,244.5,58.1,244.6,58.2z"/>
					<path class="st16" d="M243.3,57.5l0.9,0.5c0.1,0,0.1,0.1,0,0.2l-0.8,0.5c-0.1,0-0.2,0-0.3,0l-0.9-0.5c-0.1,0-0.1-0.1,0-0.2
						l0.8-0.5C243.2,57.4,243.3,57.4,243.3,57.5z"/>
					<path class="st16" d="M242.1,56.8l0.9,0.5c0.1,0,0.1,0.1,0,0.2l-0.8,0.5c-0.1,0-0.2,0-0.3,0l-0.9-0.5c-0.1,0-0.1-0.1,0-0.2
						l0.8-0.5C241.9,56.7,242,56.7,242.1,56.8z"/>
					<path class="st16" d="M240.9,56.1l0.9,0.5c0.1,0,0.1,0.1,0,0.2l-0.8,0.5c-0.1,0-0.2,0-0.3,0l-0.9-0.5c-0.1,0-0.1-0.1,0-0.2
						l0.8-0.5C240.7,56,240.8,56,240.9,56.1z"/>
					<path class="st16" d="M238.2,54.5l2.4,1.4c0.1,0,0.1,0.1,0,0.2l-0.8,0.5c-0.1,0-0.2,0-0.3,0l-2.4-1.4c-0.1,0-0.1-0.1,0-0.2
						l0.8-0.5C238,54.4,238.1,54.4,238.2,54.5z"/>
					<path class="st16" d="M254.3,63.8l1.2,0.7c0.1,0,0.1,0.1,0,0.2l-0.8,0.5c-0.1,0-0.2,0-0.3,0l-1.2-0.7c-0.1,0-0.1-0.1,0-0.2
						l0.8-0.5C254.2,63.8,254.3,63.8,254.3,63.8z"/>
					<path class="st16" d="M233.4,57.2l17.4,10c0.1,0,0.1,0.1,0,0.2l-0.4,0.2c-0.1,0-0.2,0-0.3,0l-17.4-10c-0.1,0-0.1-0.1,0-0.2
						l0.4-0.2C233.2,57.2,233.3,57.2,233.4,57.2z"/>
					<polygon id="_Контур_4" class="st17" points="253.7,57.7 253.6,57.8 250.6,59.5 245.2,56.4 245.1,56.3 248.2,54.6 					
						"/>
					<polygon id="_Контур_5" class="st18" points="253.6,57.8 250.6,59.5 245.2,56.4 248.2,54.7 					"/>
					<path id="_Контур_6" class="st18" d="M262.2,61.7V62c0,0.4-0.2,0.8-0.5,1l-10.6,6.1c-0.3,0.2-0.8,0.2-1.1,0l-19.1-11
						c-0.4-0.2-0.6-0.6-0.6-1v-0.3l20.2,11.7L262.2,61.7z"/>
					<path id="_Контур_7" class="st15" d="M250.3,68.6c-0.4,0.1-0.8,0.1-1.1-0.1l-19-11c-0.3-0.2-0.6-0.5-0.6-0.9l-2.1-12.4
						c0-0.1,0-0.1,0-0.2c0-0.3,0.1-0.7,0.4-0.9l19.8,11.4c0.2,0.1,0.4,0.4,0.5,0.7L250.3,68.6z"/>
					<path id="_Контур_8" class="st18" d="M250.6,68.5l-0.1,0.1l-0.2,0.1L248,55.2c-0.1-0.3-0.2-0.5-0.5-0.7l-19.7-11.4
						c0.1-0.1,0.2-0.2,0.3-0.2l19.8,11.5c0.2,0.1,0.4,0.4,0.5,0.7L250.6,68.5z"/>
				</g>
			</g>
			<path id="_Контур_9" class="st12" d="M265,15.2c0,0-0.3,4.7-0.1,5.1s2.2,1.8,2.8,2.3s-3.3,4.3-5.1,5.2s-7.9-1.4-8-4.4
				s1-5.4,1.9-5.5S265,15.2,265,15.2z"/>
			<path id="_Контур_10" class="st15" d="M265.5,21.2c0,0-3.4,5.1-8.2,5.6c-1.5-1.5-1.6-6.8,0.4-8.5c0,0-1.9-1.6-3.2-1.3
				c-1.4,0.8-2.5,2.2-3,3.8c-1.2,3.5-1.8,7.3-1.7,11c0.1,5,0,17.7,0,17.7c0.6,3,2.4,5.7,5,7.3c3.5,2,7.5,2.5,11.4,1.6
				c2.4-0.6,3.3-1.9,4.2-3.7c-0.2-3.5-1.6-10.8-1-15.2s1.5-7.7,1.8-11.3s-0.5-3.5-2.3-4.8C267.8,22.6,266.7,21.9,265.5,21.2z"/>
			<path id="_Контур_11" class="st12" d="M260,62c0.9-0.6,1.8-1.1,2.7-1.5c0.9-0.3,1.7-0.8,2.3-1.4c0.8-0.8,2.2-3.9,3.2-7
				c1-3.4,1.4-7,1.1-10.6c-0.4-4.3-2-10.2-2.3-12.7s0.4-3.4,1.5-4.3c1.3-1.1,3.2-0.6,4.2,2.9c1.3,4.8,2,9.6,2.2,14.6
				c0,3.7-0.5,7.3-1.7,10.8c-1,3-2.4,5.8-4.1,8.5c-0.5,0.8-0.6,1.5-1.4,3.1c-0.7,1.6-1.8,3.1-3.1,4.2c-1.2,0.9-1.8,1-2.1,0.8
				s-0.3-0.6,0.2-1c0.9-0.7,1.6-1.5,2.1-2.4c0,0-1,1.1-1.7,1.6c-0.6,0.5-1.3,0.9-2,1.3c-0.7,0.3-1.7-0.3-1.2-0.8s1-0.7,2-1.6
				c0.5-0.5,1-1,1.4-1.6c-0.7,0.5-1.4,1-2.2,1.4c-0.6,0.4-1.3,0.6-2,0.6c-0.4,0-0.8-0.5-0.1-1c1-0.5,1.9-1.2,2.7-1.9
				c0.8-0.8,1.2-1.4,1-1.4s-0.6,0.5-1.5,0.8s-1.9,0-2-0.5S259.1,62.4,260,62z"/>
			<path id="_Контур_12" class="st12" d="M254.2,8.2L254.2,8.2c0.6-3.7,3.2-6.4,7-6.2c4,0.2,7.1,3.6,6.9,7.6
				c-0.1,2.3-1.3,4.4-3.2,5.7c-0.1,0.6-0.3,1.1-0.6,1.6c-1.3,1.6-5.4,2.6-6.6,2.4c-1.4-0.1-2.6-1.1-3-2.5
				C253.5,13.9,253.9,10,254.2,8.2z"/>
			<path class="st16" d="M265,15.2L265,15.2l-0.4-3.2c0,0,2.6-6.8-3.6-5.5c-4.1,0.9-5.1,1.2-6.4-1.5s3.1-5.2,8.3-4.5
				c3.7,0.4,6.5,3.6,6.4,7.3C269.3,9.8,268.8,13.9,265,15.2z"/>
			<path class="st19" d="M275.6,33.6c0,0-3.4,3.4-7.4,2.4c-0.6-0.4-2-8.2-2-8.2s0-4.4,3.3-4.2S275.6,33.6,275.6,33.6z"/>
			<path class="st19" d="M250.1,27.1c-0.9,0-1.8-0.4-2.5-1.1c0.1-1.8,2.4-8.4,6.9-8.9c-1.2,0.9-2.2,2-2.8,3.4
				C250.9,22.7,250.4,24.9,250.1,27.1z"/>
		</g>
	</g>
</g>
</svg>
