<?xml version="1.0" encoding="utf-8"?>
<!-- Generator: Adobe Illustrator 21.0.0, SVG Export Plug-In . SVG Version: 6.00 Build 0)  -->
<svg version="1.1" id="Layer_1" xmlns="http://www.w3.org/2000/svg" xmlns:xlink="http://www.w3.org/1999/xlink" x="0px" y="0px"
	 viewBox="0 0 135.8 112.5" style="enable-background:new 0 0 135.8 112.5;" xml:space="preserve">
<style type="text/css">
	.st0{fill:#B1B4C4;}
	.st1{fill:#E9EAF2;}
	.st2{fill:#8C50FF;}
</style>
<title>app_development_SVG</title>
<g id="Слой_2">
	<g id="Слой_1-2">
		<path class="st0" d="M36.1,101.7L27,97L7.9,108c-4.3,2.5-7.8,0.5-7.8-4.5V82.7c0.3-5.5,3.2-10.6,7.8-13.6L121.7,3.3
			c4.3-2.5,7.9-0.5,7.9,4.5v20.9c-0.3,5.5-3.2,10.6-7.8,13.6L45.2,86.5"/>
		<polygon class="st0" points="126.7,2.5 131,4.3 127.4,8 124.8,3.9 		"/>
		<polygon class="st0" points="36.1,101.7 40.7,103.5 40.7,99.6 36.7,98.8 		"/>
		<path class="st0" d="M7.6,110.8c0.2,0.4-4.9-1.7-5.1-2s6.2-4,6.2-4L7.6,110.8z"/>
		<path class="st1" d="M49.7,88.3l76.5-44.2c4.6-3,7.5-8.1,7.9-13.6V9.7c0-5-3.5-7-7.8-4.5L12.4,70.9c-4.6,3-7.5,8.1-7.8,13.6v20.9
			c0,5,3.5,7,7.8,4.5l19.1-11l9.2,4.7L49.7,88.3z"/>
		<polygon class="st2" points="123.9,23.3 14.7,86.3 14.7,79 123.9,16 		"/>
		<polygon class="st2" points="86.2,57.7 14.7,99 14.7,91.7 86.2,50.5 		"/>
	</g>
</g>
</svg>
