<?xml version="1.0" encoding="utf-8"?>
<!-- Generator: Adobe Illustrator 21.0.0, SVG Export Plug-In . SVG Version: 6.00 Build 0)  -->
<svg version="1.1" id="Layer_1" xmlns="http://www.w3.org/2000/svg" xmlns:xlink="http://www.w3.org/1999/xlink" x="0px" y="0px"
	 viewBox="0 0 111.3 210.7" style="enable-background:new 0 0 111.3 210.7;" xml:space="preserve">
<style type="text/css">
	.st0{fill:#211B49;}
	.st1{fill:#2E245B;}
	.st2{fill:#A298E2;}
	.st3{fill:#C33AFC;}
	.st4{fill:#F4CE2C;}
	.st5{fill:#FF8657;}
	.st6{fill:#4D3BFF;}
</style>
<title>app_development_SVG</title>
<path class="st0" d="M98,207.5l-83.5-48.2c-5.3-3-9.5-11.1-9.5-18.1V9.7c0-7,4.2-10.2,9.5-7.2L98,50.8c5.2,3,9.5,11.1,9.5,18.1
	v131.4C107.5,207.3,103.3,210.5,98,207.5z"/>
<polygon class="st0" points="101.4,209.4 104.2,208 102.3,204.2 "/>
<path class="st0" d="M6.6,2.9C7.4,2.4,8.3,2,9.2,1.6l2.1,4.2L6.6,2.9z"/>
<path class="st1" d="M95.8,208.6l-83.5-48.3c-5.2-3-9.5-11.1-9.5-18.1V10.8c0-7,4.3-10.2,9.5-7.2l83.5,48.2c5.2,3,9.5,11.1,9.5,18.1
	v131.4C105.3,208.4,101.1,211.6,95.8,208.6z"/>
<polygon class="st2" points="27.5,31 12.3,22.3 12.3,16.8 27.5,25.5 "/>
<polygon class="st3" points="94.9,69.9 30.4,32.7 30.4,27.2 94.9,64.5 "/>
<polygon class="st2" points="27.5,48.6 12.3,39.8 12.3,34.3 27.5,43.1 "/>
<polygon class="st4" points="73.1,74.9 30.4,50.2 30.4,44.7 73.1,69.4 "/>
<polygon class="st2" points="27.5,57.3 12.3,48.6 12.3,43.1 27.5,51.8 "/>
<polygon class="st5" points="83.5,89.7 30.4,59 30.4,53.5 83.5,84.2 "/>
<polygon class="st2" points="27.5,66.1 12.3,57.3 12.3,51.8 27.5,60.6 "/>
<polygon class="st2" points="67.4,89.1 30.4,67.7 30.4,62.3 67.4,83.6 "/>
<polygon class="st2" points="27.5,39.8 12.3,31 12.3,25.5 27.5,34.3 "/>
<polygon class="st6" points="62.6,60.1 30.4,41.4 30.4,36 62.6,54.6 "/>
<polygon class="st2" points="27.5,74.9 12.3,66.1 12.3,60.6 27.5,69.4 "/>
<polygon class="st3" points="49.3,87.5 30.4,76.5 30.4,71 49.3,82 "/>
<polygon class="st2" points="27.5,92.4 12.3,83.6 12.3,78.2 27.5,86.9 "/>
<polygon class="st4" points="90.2,128.6 30.4,94 30.4,88.6 90.2,123.1 "/>
<polygon class="st2" points="27.5,101.2 12.3,92.4 12.3,86.9 27.5,95.7 "/>
<polygon class="st5" points="48.4,113.2 30.4,102.8 30.4,97.3 48.4,107.7 "/>
<polygon class="st2" points="27.5,109.9 12.3,101.2 12.3,95.7 27.5,104.5 "/>
<polygon class="st2" points="83.5,142.3 30.4,111.6 30.4,106.1 83.5,136.8 "/>
<polygon class="st2" points="27.5,83.6 12.3,74.9 12.3,69.4 27.5,78.2 "/>
<polygon class="st6" points="80.7,114.3 30.4,85.3 30.4,79.8 80.7,108.8 "/>
<polygon class="st2" points="27.5,118.7 12.3,109.9 12.3,104.5 27.5,113.2 "/>
<polygon class="st3" points="37,124.2 30.4,120.3 30.4,114.9 37,118.7 "/>
<polygon class="st2" points="27.5,136.2 12.3,127.5 12.3,122 27.5,130.8 "/>
<polygon class="st4" points="42.7,145 30.4,137.9 30.4,132.4 42.7,139.5 "/>
<polygon class="st2" points="27.5,145 12.3,136.2 12.3,130.8 27.5,139.5 "/>
<polygon class="st5" points="62.6,165.3 30.4,146.7 30.4,141.2 62.6,159.8 "/>
<polygon class="st2" points="27.5,153.8 12.3,145 12.3,139.5 27.5,148.3 "/>
<polygon class="st2" points="81.6,185 30.4,155.4 30.4,149.9 81.6,179.5 "/>
<polygon class="st2" points="27.5,127.5 12.3,118.7 12.3,113.2 27.5,122 "/>
<polygon class="st6" points="94.9,166.4 30.4,129.1 30.4,123.6 94.9,160.9 "/>
</svg>
