<?xml version="1.0" encoding="utf-8"?>
<!-- Generator: Adobe Illustrator 21.0.0, SVG Export Plug-In . SVG Version: 6.00 Build 0)  -->
<svg version="1.1" id="Layer_1" xmlns="http://www.w3.org/2000/svg" xmlns:xlink="http://www.w3.org/1999/xlink" x="0px" y="0px"
	 viewBox="0 0 242.2 270.3" style="enable-background:new 0 0 242.2 270.3;" xml:space="preserve">
<style type="text/css">
	.st0{opacity:0.4;fill:#D6D8E5;enable-background:new    ;}
	.st1{fill:#B1B4C4;}
	.st2{fill:#FAFBFF;}
	.st3{fill:#E9EAF2;}
	.st4{fill:#3A2C6D;}
	.st5{fill:#FFCEA9;}
	.st6{fill:#F4F4F4;}
	.st7{fill:#38226D;}
	.st8{fill:#9C73FF;}
	.st9{fill:#8C50FF;}
	.st10{fill:#EDEDED;}
	.st11{fill:#A1A5B5;}
	.st12{opacity:0.1;fill:#3E7EFF;enable-background:new    ;}
	.st13{fill:#D6D8E5;}
	.st14{opacity:0.1;enable-background:new    ;}
	.st15{fill:#2B2A30;}
	.st16{fill:#BF4B4B;}
	.st17{fill:#E26161;}
</style>
<title>Business_SVG</title>
<g id="Слой_2">
	<g id="Слой_1-2">
		<polygon class="st0" points="102.6,257.2 3.6,200.1 139.6,121.6 238.6,178.7 		"/>
		<polygon class="st1" points="238.9,174.8 143.2,119.6 10.5,196.2 7.2,194.3 7.2,198.1 106.2,255.2 242.2,176.7 242.2,173 		"/>
		<polygon class="st2" points="106.2,251.5 7.2,194.3 143.2,115.8 242.2,173 		"/>
		<polygon class="st3" points="213,179 133.6,133.2 141.5,128.7 220.8,174.5 		"/>
		<polygon class="st3" points="204.6,183.9 125.2,138 129.2,135.8 208.5,181.6 		"/>
		<polygon class="st3" points="198.1,187.6 118.7,141.8 122.7,139.5 202,185.3 		"/>
		<polygon class="st3" points="191.6,191.3 112.3,145.5 116.2,143.3 195.6,189.1 		"/>
		<polygon class="st3" points="144.1,218.8 64.7,173 72.6,168.4 151.9,214.3 		"/>
		<polygon class="st3" points="130.3,220.5 56.3,177.8 60.3,175.5 134.2,218.2 		"/>
		<polygon class="st3" points="122.3,223.4 49.8,181.6 53.8,179.3 126.2,221.1 		"/>
		<polygon class="st3" points="104.6,220.7 43.4,185.3 47.3,183 108.5,218.4 		"/>
		<polygon class="st3" points="104,175.9 81.8,163.1 104,150.3 126.1,163.1 		"/>
		<polygon class="st3" points="132.6,192.4 110.5,179.6 132.6,166.8 154.7,179.6 		"/>
		<polygon class="st3" points="161.2,208.9 139.1,196.1 161.2,183.3 183.3,196.1 		"/>
		<g id="Girl_8">
			<ellipse class="st0" cx="206.2" cy="130.5" rx="22.7" ry="13.1"/>
			<path id="_Контур_27" class="st4" d="M205.2,8c0.9-1.5,7.9-2.4,10.1,3.5c0.9,2.2,0.7,7.9,1.5,11.5s2.4,5.6,3,8.5
				s-0.4,7.8-7.4,8.6s-12.4-1.6-14.1-3.8s-1.7-7,0-9.5s3-4.6,3-8L205.2,8z"/>
			<path class="st5" d="M196.9,32.7c0,0-1.6,11.7,1.5,19.9s2.3-2.1,2.3-2.1l-0.8-2.5c0,0-0.6-9.5-0.4-11.8s0.2-4.3,0.4-4.5
				s-0.6-0.6-0.9-0.6S196.9,32.7,196.9,32.7z"/>
			<path id="_Контур_28" class="st4" d="M209.8,7c0,0-5.2-1.5-8.4,1.3c-2.1,2-3,5-2.2,7.8c0.4,1.6,1.3,3.9,2.6,4
				S209.8,7,209.8,7z"/>
			<path id="_Контур_29" class="st5" d="M211.8,21.3c0,0-0.3,5.8-0.2,6.3s2.3,0.8,2.9,1.4s-3.2,6.4-5.1,7.3s-7.9-1.4-8.3-4.3
				c-0.4-2.7,1.7-4.8,2.5-5.6c0.5,0,1.1,0,1.6,0l0.2-2.8C208,22.6,211.8,21.3,211.8,21.3z"/>
			<path id="_Контур_30" class="st6" d="M212.6,28.1c1.6,0.3,3.5,1.1,3.8,2c0.7,3.2,0.5,6.6-0.5,9.7c-1.4,3.8-2.4,6.1-3.2,7.8
				c0,0-7.1,3-12.8-0.5c0,0-0.4-4-0.4-6.2c-5.3-4.6-0.8-10.3,3.7-14.7c0.5,0,1.1,0,1.6,0c0,0-4,4.7-1.2,7.4
				C209.5,31.8,210.7,29.2,212.6,28.1z"/>
			<path id="_Контур_31" class="st5" d="M200.9,14.1L200.9,14.1c0.6-3.8,3.3-6.6,7.2-6.4c4.1,0.2,7.3,3.7,7.1,7.8
				c-0.1,2.4-1.4,4.6-3.3,5.9c-0.1,0.6-0.3,1.1-0.6,1.6c-1.4,1.6-5,2.6-6.2,2.6c-1,0-1.9-0.9-2.9-2.6
				C200,19.6,200.6,15.9,200.9,14.1z"/>
			<path class="st4" d="M209.2,7.8c2.7,0.5,4.9,1.3,5.7,3.9c0.5,1.8,1.2,5.3,0.5,6.8l-0.4,1.1l-3.3,1.7c0,0-1.5-1.3-1-5
				c0-0.5-0.2-1-0.5-1.4c-0.2-0.4-0.4-0.7-0.5-1.1c-0.4-1-1.1-1.8-2.1-2.3c-2.5-1.4-6-0.2-6.5,0.3C202.6,8.7,205.9,7,209.2,7.8z"/>
			<path id="_Контур_32" class="st5" d="M216.5,55.3c0.6-3.8,1.8-6.3,1.2-8.4c-1.2-4.2-2.7-8.3-4.6-12.3
				c-1.2-2.4-0.8-4,0.4-4.9c1.4-1,2.7-0.6,4,2c1.6,3.3,3.4,6.7,4.2,11.6c0.6,3.2,0.5,6.4-0.1,9.6c-0.5,3.4-1.6,5.3-2.9,8.5
				C218.4,62.3,216,58.6,216.5,55.3z"/>
			<path class="st7" d="M214.2,126.2c-1.4,1.1-3.5,0.3-3.6,0.4c-1.6,1.4-3.3,2.7-5,3.8c-0.9,0.7-2.2,1.6-2,2.9
				c0.4,2.3,4.1,1.6,5.5,0.9s2.5-1.9,3.9-2.7c1-0.6,1.9-0.9,2-2.1C215.1,128.7,214.4,126.1,214.2,126.2z"/>
			<path class="st8" d="M215,128.9c-0.2,1.1-1.1,1.5-2,2c-1.3,0.8-2.5,2-3.9,2.7s-4.5,1.3-5.4-0.4c0.5,2.2,4.1,1.5,5.5,0.8
				s2.5-1.9,3.9-2.7c1-0.6,1.9-0.9,2-2.1C215,129.2,215,129.1,215,128.9z"/>
			<path class="st7" d="M204.5,124.2c-1.3,1-3.1,0.5-3.2,0.5c-1.5,1.3-3,2.4-4.6,3.5c-0.8,0.6-2,1.4-1.8,2.6
				c0.4,2.1,3.8,1.5,5.1,0.8s2.3-1.7,3.5-2.5c0.9-0.5,1.7-0.8,1.9-1.9C205.4,126.7,204.8,124.2,204.5,124.2z"/>
			<path class="st8" d="M205.3,126.9c-0.2,1-1,1.3-1.9,1.9c-1.2,0.8-2.3,1.9-3.6,2.5s-4.1,1.2-5-0.3c0.5,2,3.8,1.4,5,0.8
				s2.3-1.7,3.5-2.5c0.9-0.5,1.7-0.8,1.9-1.9C205.3,127.2,205.3,127.1,205.3,126.9z"/>
			<path class="st5" d="M197.1,60.4c0.6-4.7,2.4-11.6,2.4-11.6c1.6,0.8,3.4,1.2,5.3,1.3c2.7,0,5.3-0.3,7.9-0.8
				c0.9,1.5,1.8,2.9,2.8,4.3c1.4,1.9,4,6,3.4,13.3c-0.4,4.7-3.1,24.8-3.1,24.8c1,3.4,1.6,6.9,1.6,10.4c-0.2,4.2-0.8,8.4-1.7,12.5
				l-1.6,11.4c0,0-2.1,1.5-3.6,0.4l0.2-11.2c-0.2-2.7-0.5-6.8-0.6-9.3c-0.3-4.2-1-10.9-1.3-12.5s-0.8-4.6-1-7.8s-1.5-19.8-1.5-19.8
				l-0.2,3.1c0,0-0.2,5-0.9,11.2s-1,9-1,9c0.7,1.2,1.2,2.6,1.4,4c0.1,1.3,1.7,12,0.7,17.4l-1.9,13.7c-1,0.7-2.2,0.8-3.3,0.4
				l-1.1-13.8c-0.7-5.3-2.3-16.4-2.5-17.9c-0.5-2.9-0.8-5.9-0.9-8.9C196.4,78.2,196.5,65.2,197.1,60.4z"/>
			<path class="st9" d="M212.7,47.6l4.1,8.2c0,0,6.2,9.1-0.2,32.5l1.2,7.2c0,0-12.2,7.8-20.4,0c0,0-2.8-21.6-1.3-31.6
				c0.8-5.7,2.1-11.4,3.8-16.9c0,0,2,2.2,12.3,0.8"/>
			<path class="st10" d="M220,36.4c0,0-2.8,2.8-6.2,2.5l-1.6-5.5c0,0-1-2.9,1.4-4.1S218.6,30.8,220,36.4z"/>
			<path class="st10" d="M203.2,26.3c0,0-3.2-1-6.7,6.2l1.3,0.8C199.4,30.8,201.2,28.4,203.2,26.3z"/>
		</g>
		<path class="st1" d="M175.4,158.6c-1.6-1.4-3.3-2.7-5.1-3.7c-13.9-8-36.4-8-50.2,0c-2.1,1.2-4.1,2.7-5.8,4.4
			c-7.6,7.8-5.7,17.9,5.8,24.5c13.8,8,36.4,8,50.2,0C182.2,177.1,183.9,166.5,175.4,158.6z M165.9,181.3c-11.4,6.6-30,6.6-41.4,0
			c-8-4.6-10.4-11.3-7.2-17.1c1.7-2.9,4.2-5.2,7.2-6.8c11.4-6.6,30-6.6,41.4,0c3,1.6,5.4,3.9,7.1,6.8l0,0
			C176.3,170.1,173.9,176.7,165.9,181.3z"/>
		<path class="st11" d="M173,164.3L173,164.3c-1.7-2.9-4.2-5.2-7.1-6.8c-11.4-6.6-30-6.6-41.4,0c-3,1.6-5.4,3.9-7.2,6.8l-3.1-4.9
			l-0.6-0.9l4-9.5l13.9-7.7l25.9,0.5L175,152c0,0,0.3,3.3,0.4,6.6C175.4,162.7,175,166.7,173,164.3z"/>
		<polygon class="st1" points="109.7,169.3 109.7,158.5 115.1,167.6 		"/>
		<polygon class="st1" points="180.7,169.3 180.7,158.5 175.9,163.9 		"/>
		<ellipse class="st12" cx="145.5" cy="163.9" rx="29.5" ry="17"/>
		<path class="st1" d="M112.4,171.2c0,0,4.5,17.9,38.5,17c23.5,0,26.6-20.2,26-23.1c-4.9,6.7-12.5,11-20.8,11.6
			c-14.3,1.3-24.9,1.1-30.6-1.6c-5.7-2.7-13.1-9.9-13.1-9.9L112.4,171.2z"/>
		<path class="st13" d="M120.1,173.6c-13.8-8-13.8-21,0-29s36.4-8,50.2,0s13.8,21,0,29S133.9,181.6,120.1,173.6z M165.9,147.1
			c-11.4-6.6-30-6.6-41.4,0s-11.4,17.3,0,23.9s30,6.6,41.4,0S177.3,153.7,165.9,147.1z"/>
		<ellipse transform="matrix(0.866 -0.5 0.5 0.866 -95.2501 62.981)" class="st14" cx="69.9" cy="209.2" rx="3.9" ry="6.8"/>
		<polygon class="st1" points="123.7,178.1 108.8,186.7 104.2,184.1 119.1,175.5 		"/>
		<polygon class="st11" points="123.7,183.4 108.8,192.1 108.8,186.7 123.7,178.1 		"/>
		<path class="st9" d="M111.8,190.5c-0.2-3.4-2-6.4-4.8-8.3c-1-0.7-2.2-0.8-3.3-0.4l0,0l-37.2,21.4l6.8,11.6l36.7-21.2
			C111.1,193.4,111.8,192.2,111.8,190.5z"/>
		<ellipse transform="matrix(0.866 -0.5 0.5 0.866 -95.2501 62.981)" class="st9" cx="69.9" cy="209.2" rx="3.9" ry="6.8"/>
		<g id="Men_1">
			<ellipse class="st0" cx="174.3" cy="257.2" rx="22.7" ry="13.1"/>
			<path id="_Контур_54" class="st5" d="M190.2,163.1c0.2,2.1,2.8,11.2,2.2,14.3s-9.1,8.3-9.1,8.3l-1.2-5.3l4.8-4.7l-1.3-8.8
				L190.2,163.1z"/>
			<path id="_Контур_55" class="st10" d="M183.5,154.1c1.7-0.8,3.8-0.2,4.8,1.5c1.3,2.1,2.6,9.3,2.7,10.5c0,0-1.8,2.5-4.4,2
				L183.5,154.1z"/>
			<path class="st15" d="M173.7,255.6c-1.9,0.5-3.9,0.3-5.6-0.7c-1.3,0-8.6-3.1-9.6-0.5c-0.9,2.3,2.3,4.4,4,4.8
				c3.7,0.9,6.4,2.7,7.9,3c1.1,0.2,2.5,0.4,3.4-0.5C174.8,260.8,174.7,256.9,173.7,255.6z"/>
			<path class="st16" d="M170.4,261.6c-1.5-0.3-4.2-2.1-7.9-3c-1.4-0.3-3.8-1.9-4.1-3.7c-0.3,2.1,2.5,4,4.1,4.4
				c3.7,0.9,6.4,2.7,7.9,3c1.1,0.2,2.5,0.4,3.4-0.5c0.2-0.3,0.4-0.6,0.5-0.9C173.2,261.7,171.7,262,170.4,261.6z"/>
			<path class="st15" d="M185.5,250.3c-1.9,0.5-3.9,0.3-5.6-0.7c-1.3,0-8.6-3.1-9.6-0.5c-0.9,2.3,2.3,4.4,4,4.8
				c3.7,0.9,6.4,2.7,7.9,3c1.1,0.2,2.5,0.4,3.4-0.5C186.6,255.5,186.5,251.6,185.5,250.3z"/>
			<path class="st16" d="M182.2,256.3c-1.5-0.3-4.2-2.1-7.9-3c-1.4-0.3-3.8-1.9-4.1-3.7c-0.3,2.1,2.5,4,4.1,4.4
				c3.7,0.9,6.4,2.7,7.9,3c1.1,0.2,2.5,0.4,3.4-0.5c0.2-0.3,0.4-0.6,0.5-0.9C185,256.5,183.5,256.7,182.2,256.3z"/>
			<path id="_Контур_56" class="st17" d="M185.7,230.5c-0.3-2.7-0.9-5.4-1.7-8c0,0,0.5-6.9,0.8-13.4
				c0.3-7.4,2.9-13.9,0.8-19.8l-22.8,5.1c0,0,1.4,29.5,1.7,33.1c0.2,2.8,0.5,5.5,1,8.3c1,5.7,2.7,19.4,2.7,19.4
				c1.7,0.8,3.7,1,5.6,0.6c0,0-0.2-17.2-0.3-21.4c-0.2-5-0.3-4.6-0.3-4.6l0.8-12.5l0.5-6.2c0,0,0.6,4.6,1,8.7
				c0.4,3.6,1.2,6.8,2.2,13.4c0.8,5.8,2.2,17.3,2.2,17.3c2.4,1.4,5.7,0.2,5.7,0.2S186.3,235.5,185.7,230.5z"/>
			<path id="_Контур_57" class="st5" d="M182.3,154.2c-1.7,0.1-3,0.5-3.3,0c-0.2-0.9-0.3-1.8-0.4-2.7c0.2-0.5,0.4-1,0.4-1
				c2.2-1.3,2.9-3.7,3.2-6.5c0.5-4.7-2-8.8-6.8-9.3c-4.4-0.5-7.7,2.6-8.5,6.9c-0.5,2.1-1.4,6.1-0.1,9.5c0.7,1.9,1.6,3.5,2.5,3.8
				c0.9,0,1.7-0.1,2.6-0.2l0,0c0,0,0.2,1.3,0.4,2.1s0.1,1.3-1.6,2.3s2.5,3.1,5.3,2.9s5.8-1.9,6.7-3.6
				C183.6,156.5,183.5,154.2,182.3,154.2z"/>
			<path id="_Контур_58" class="st6" d="M179.8,154.5c0.5,1.2-0.8,2.7-4,3.7s-3.6-0.3-3.6-0.3c-2.2,1-4.3,2.1-6.4,3.3
				c-2,1.4-2.8,5.3-3.1,12c-0.3,7.7-0.3,19.2-0.1,21.2c0,0,3.7,3.6,8.4,3.3s12.6-4.5,14.5-7.7c0-6.8-0.9-7.9,0.3-11.8
				c2.5-9,3.8-12.6,2.6-18.6c-1-4.9-2.4-5.5-4.4-5.5C182.7,154.1,181.2,154.3,179.8,154.5z"/>
			<path id="_Контур_59" class="st5" d="M155.4,179.6c3.9,1,4.8-1.5,5.3-3.5c1.2-4.9,1.9-9.3,2.8-12c1.1-3.3,2.2-3.8,3.8-4.4
				c1.9-0.8,3.5,0.8,2.8,5c-0.8,4.8-1.9,9.5-3.5,14.1c-0.5,1.5-1.5,4.2-3.2,5.5c-2,1.6-5,1.5-9.5,0.4c-1.9-0.5-4-1.6-7.7-3.3
				c-1-0.5-1.7-0.8-3.6-1.6c-1.9-0.9-3.5-2.1-4.8-3.8c-1-1.4-1.1-2.1-0.9-2.4s0.7-0.3,1.2,0.3c0.8,1,1.7,1.9,2.8,2.6
				c0,0-1.2-1.3-1.9-2.1c-0.6-0.7-1.1-1.5-1.5-2.4c-0.4-0.8,0.4-2,0.9-1.4s0.8,1.2,1.8,2.4c0.5,0.6,1.1,1.2,1.8,1.7
				c-0.6-0.8-1.2-1.7-1.6-2.6c-0.4-0.7-0.6-1.6-0.6-2.4c0-0.4,0.6-1,1.2-0.1c0.6,1.1,1.3,2.2,2.1,3.1c0.9,0.9,1.6,1.4,1.6,1.2
				s-0.5-0.8-0.8-1.8s0-2.2,0.6-2.3s0.5-0.1,0.9,0.9c0.6,1,1.2,2.1,1.8,3.2c0.3,1,0.8,2,1.6,2.7
				C149.7,177.5,151.8,178.7,155.4,179.6z"/>
			<path id="_Контур_60" class="st10" d="M168.7,159c-2.6-0.4-4.4,0.8-5.5,4.7s-1.9,7.1-1.9,7.1c1,1.5,2.6,2.5,4.3,2.9
				c3.1,0.7,4.2-0.7,4.2-0.7s0.9-4.1,1.4-6.9S171.9,159.5,168.7,159z"/>
			<path class="st15" d="M167.1,141c0,0-4-6.2,4.7-7.4c6.3-0.9,10.4,3.2,10.9,7.6c0.5,4.2-2.1,8.6-4,10.4c-1.8,0.5-3.8,0.2-5.5-0.7
				c-0.1-1.1-0.1-2.3-0.1-3.5C173.1,147.4,176.2,140.9,167.1,141z"/>
		</g>
	</g>
</g>
</svg>
