<?xml version="1.0" encoding="utf-8"?>
<!-- Generator: Adobe Illustrator 21.0.0, SVG Export Plug-In . SVG Version: 6.00 Build 0)  -->
<svg version="1.1" id="Layer_1" xmlns="http://www.w3.org/2000/svg" xmlns:xlink="http://www.w3.org/1999/xlink" x="0px" y="0px"
	 viewBox="0 0 95.7 153.3" style="enable-background:new 0 0 95.7 153.3;" xml:space="preserve">
<style type="text/css">
	.st0{opacity:0.3;fill:#D6D8E5;enable-background:new    ;}
	.st1{fill:#8C50FF;}
	.st2{opacity:0.1;enable-background:new    ;}
	.st3{opacity:0.15;enable-background:new    ;}
	.st4{fill:#E9EAF2;}
	.st5{fill:#FFCEA9;}
	.st6{fill:#38226D;}
	.st7{fill:#9C73FF;}
	.st8{fill:#F4F4F4;}
	.st9{fill:#3A2C6D;}
	.st10{fill:#BFBFBF;}
	.st11{fill:#E5E5E5;}
	.st12{fill:#EDEDED;}
</style>
<title>Business_SVG</title>
<polygon class="st0" points="36,143.2 17.2,132.3 36,121.5 54.8,132.3 "/>
<polygon class="st0" points="65.8,125.8 47,115 65.8,104.1 84.5,115 "/>
<polygon class="st1" points="76.9,22 58.1,11.2 76.9,0.3 95.7,11.2 "/>
<polygon class="st1" points="76.9,119.5 58.1,108.7 58.1,11.2 76.9,22 "/>
<polygon class="st2" points="76.9,119.5 58.1,108.7 58.1,11.2 76.9,22 "/>
<polygon class="st1" points="95.7,108.7 76.9,119.5 76.9,22 95.7,11.2 "/>
<polygon class="st3" points="95.7,108.7 76.9,119.5 76.9,22 95.7,11.2 "/>
<polygon class="st4" points="48.7,70.8 30,59.9 48.7,49.1 67.5,59.9 "/>
<polygon class="st4" points="48.7,135.7 30,124.9 30,59.9 48.7,70.8 "/>
<polygon class="st2" points="48.7,135.7 30,124.9 30,59.9 48.7,70.8 "/>
<polygon class="st4" points="67.5,124.9 48.7,135.7 48.7,70.8 67.5,59.9 "/>
<polygon class="st3" points="67.5,124.9 48.7,135.7 48.7,70.8 67.5,59.9 "/>
<polygon class="st1" points="18.8,122.2 0,111.4 18.8,100.6 37.5,111.4 "/>
<polygon class="st1" points="18.8,153.3 0,142.5 0,111.4 18.8,122.2 "/>
<polygon class="st2" points="18.8,153.3 0,142.5 0,111.4 18.8,122.2 "/>
<polygon class="st1" points="37.5,142.5 18.8,153.3 18.8,122.2 37.5,111.4 "/>
<polygon class="st3" points="37.5,142.5 18.8,153.3 18.8,122.2 37.5,111.4 "/>
<g id="Men_11">
	<path id="_Контур_15" class="st5" d="M50.5,43.3c1.4,2.6,3.2,4.9,5.2,7.1c0.6,0.6,4.9-1,4-1.5s-3.7-4.4-5.1-7
		c-1.2-3.1-2.2-6.4-3-9.6c-0.9-3.2-1.7-7.9-2.3-10.2c-0.3-1.7-1.6-3-3.3-3.4c-1.5-0.4-2.6,0.1-2.3,1.9C44.1,24,46.7,36.8,50.5,43.3z
		"/>
	<path class="st6" d="M48,93.5c1.3,1.1,3.3,0.1,3.4,0.2c1.6,1.5,3.2,2.8,4.9,4.1c0.8,0.6,2.1,1.5,1.9,2.8c-0.4,2.3-4,1.6-5.4,0.9
		s-2.5-1.8-3.8-2.6c-0.9-0.6-1.8-0.9-2-2C47.1,96.2,47.8,93.5,48,93.5z"/>
	<path class="st7" d="M47.2,96.4c0.2,1.1,1.1,1.4,2,2c1.3,0.8,2.5,2,3.8,2.7s4.4,1.3,5.3-0.3c-0.5,2.2-4,1.5-5.4,0.8
		s-2.5-1.8-3.8-2.6c-0.9-0.6-1.8-0.9-2-2C47.1,96.7,47.2,96.5,47.2,96.4z"/>
	<path class="st6" d="M61.6,85.7c1.3,1.1,3.7-0.1,3.8,0c1.4,1.4,2.9,2.8,4.4,4c0.8,0.7,2.1,1.5,1.9,2.8c-0.4,2.3-4,1.6-5.4,0.9
		s-2.5-1.8-3.8-2.6c-0.9-0.6-1.8-0.9-2-2C60.6,87.6,61,86.6,61.6,85.7z"/>
	<path class="st7" d="M60.6,88.4c0.2,1.1,1.1,1.4,2,2c1.3,0.8,2.5,2,3.8,2.7s4.4,1.3,5.3-0.3c-0.5,2.2-4,1.5-5.4,0.8
		s-2.5-1.8-3.8-2.6c-0.9-0.6-1.8-0.9-2-2C60.6,88.7,60.6,88.5,60.6,88.4z"/>
	<path id="_Контур_16" class="st1" d="M30.1,50.6c-1.5,9.3,2.6,12.7,8,14.7c3.8,1.4,9.3,3.6,9.3,3.6s-0.1,2-0.1,6.6
		c0,4,0.5,18.7,0.5,18.7c1.3,0.7,2.8,0.7,4.1,0c0,0,2.2-11.2,2.6-16.3c0.6-6.9,1.7-11.4,1.3-12.9c-0.3-1.3-7.8-5-10.2-7l15.8,5.3
		C61.1,65,61,66.7,61,68.5c0.1,5.4,0.4,17.3,0.4,17.3s2.2,1.6,4,0c0,0,4-23.4,3.5-26.5c-0.5-2.9-14.3-8.9-16.8-11
		c-0.9-0.7-2-1-3.1-0.8L30.1,50.6z"/>
	<g id="_Группа_3">
		<g id="_Группа_4">
			<path id="_Контур_17" class="st8" d="M67.9,54.5l-10.6-6.1c-0.2-0.1-0.4-0.1-0.6,0L38.2,59.1L49,65.4L67.9,54.5z"/>
			<path class="st9" d="M48.5,63.2l-0.8,0.5c-0.1,0-0.1,0.1,0,0.1l0.8,0.4c0.1,0,0.2,0,0.3,0l0.8-0.5c0.1,0,0.1-0.1,0-0.1l-0.8-0.4
				C48.7,63.1,48.6,63.1,48.5,63.2z"/>
			<path class="st9" d="M49.7,62.5l-0.8,0.5c-0.1,0,0,0.1,0,0.1l0.8,0.4c0.1,0,0.2,0,0.3,0l0.8-0.5c0.1,0,0.1-0.1,0-0.1l-0.8-0.4
				C49.9,62.4,49.8,62.4,49.7,62.5z"/>
			<path class="st9" d="M50.8,61.8L50,62.3c-0.1,0-0.1,0.1,0,0.1l0.8,0.4c0.1,0,0.2,0,0.3,0l0.8-0.5c0.1,0,0.1-0.1,0-0.1l-0.8-0.4
				C51,61.8,50.9,61.8,50.8,61.8z"/>
			<path class="st9" d="M52,61.2l-0.8,0.5c-0.1,0-0.1,0.1,0,0.1l0.8,0.4c0.1,0,0.2,0,0.3,0l0.8-0.5c0.1,0,0-0.1,0-0.1l-0.8-0.4
				C52.2,61.1,52,61.1,52,61.2z"/>
			<path class="st9" d="M53.1,60.5l-0.8,0.5c-0.1,0-0.1,0.1,0,0.1l0.8,0.4c0.1,0,0.2,0,0.3,0l0.8-0.5c0.1,0,0.1-0.1,0-0.1l-0.8-0.4
				C53.3,60.4,53.2,60.4,53.1,60.5z"/>
			<path class="st9" d="M54.3,59.8l-0.8,0.5c-0.1,0-0.1,0.1,0,0.1l0.8,0.4c0.1,0,0.2,0,0.3,0l0.8-0.5c0.1,0,0.1-0.1,0-0.1l-0.8-0.4
				C54.4,59.8,54.3,59.8,54.3,59.8z"/>
			<path class="st9" d="M55.4,59.2l-0.8,0.5c-0.1,0-0.1,0.1,0,0.1l0.8,0.4c0.1,0,0.2,0,0.3,0l0.8-0.5c0.1,0,0.1-0.1,0-0.1l-0.8-0.4
				C55.6,59.1,55.5,59.1,55.4,59.2z"/>
			<path class="st9" d="M56.5,58.5L55.7,59c-0.1,0-0.1,0.1,0,0.1l0.8,0.4c0.1,0,0.2,0,0.3,0l0.8-0.5c0.1,0,0.1-0.1,0-0.1l-0.8-0.4
				C56.7,58.5,56.6,58.5,56.5,58.5z"/>
			<path class="st9" d="M57.7,57.8l-0.8,0.5c-0.1,0,0,0.1,0,0.1l0.8,0.4c0.1,0,0.2,0,0.3,0l0.8-0.5c0.1,0,0-0.1,0-0.1l-0.8-0.4
				C57.8,57.8,57.8,57.8,57.7,57.8z"/>
			<path class="st9" d="M58.8,57.2L58,57.6c-0.1,0-0.1,0.1,0,0.1l0.8,0.4c0.1,0,0.2,0,0.3,0l0.8-0.5c0.1,0,0-0.1,0-0.1l-0.8-0.4
				C59,57.1,58.9,57.1,58.8,57.2z"/>
			<path class="st9" d="M60,56.5L59.2,57c-0.1,0-0.1,0.1,0,0.1l0.8,0.4c0.1,0,0.2,0,0.3,0l0.8-0.4c0.1,0,0.1-0.1,0-0.1l-0.8-0.4
				C60.1,56.5,60,56.5,60,56.5z"/>
			<path class="st9" d="M61.1,55.9l-0.8,0.5c-0.1,0-0.1,0.1,0,0.1l0.8,0.4c0.1,0,0.2,0,0.3,0l0.8-0.5c0.1,0,0.1-0.1,0-0.1l-0.8-0.4
				C61.3,55.8,61.2,55.8,61.1,55.9z"/>
			<path class="st9" d="M62.2,55.2l-0.8,0.5c-0.1,0-0.1,0.1,0,0.1l0.8,0.4c0.1,0,0.2,0,0.3,0l0.8-0.5c0.1,0,0.1-0.1,0-0.1l-0.8-0.4
				C62.4,55.2,62.3,55.2,62.2,55.2z"/>
			<path class="st9" d="M64,54.2L62.6,55c-0.1,0-0.1,0.1,0,0.1l0.8,0.4c0.1,0,0.2,0,0.3,0l1.3-0.8c0.1,0,0.1-0.1,0-0.1l-0.8-0.4
				C64.1,54.2,64,54.2,64,54.2z"/>
			<path class="st9" d="M49.1,61.5L48.3,62c-0.1,0-0.1,0.1,0,0.1l0.8,0.4c0.1,0,0.2,0,0.3,0l0.8-0.5c0.1,0,0.1-0.1,0-0.1l-0.8-0.4
				C49.3,61.5,49.2,61.5,49.1,61.5z"/>
			<path class="st9" d="M50.3,60.8l-0.8,0.5c-0.1,0-0.1,0.1,0,0.1l0.8,0.4c0.1,0,0.2,0,0.3,0l0.8-0.5c0.1,0,0.1-0.1,0-0.1l-0.8-0.4
				C50.4,60.8,50.3,60.8,50.3,60.8z"/>
			<path class="st9" d="M51.4,60.2l-0.8,0.5c-0.1,0-0.1,0.1,0,0.1l0.8,0.4c0.1,0,0.2,0,0.3,0l0.8-0.5c0.1,0,0-0.1,0-0.1l-0.8-0.4
				C51.6,60.1,51.5,60.1,51.4,60.2z"/>
			<path class="st9" d="M52.6,59.5L51.8,60c-0.1,0-0.1,0.1,0,0.1l0.8,0.4c0.1,0,0.2,0,0.3,0l0.8-0.5c0.1,0,0.1-0.1,0-0.1l-0.8-0.4
				C52.7,59.5,52.6,59.5,52.6,59.5z"/>
			<path class="st9" d="M53.7,58.9l-0.8,0.5c-0.1,0,0,0.1,0,0.1l0.8,0.4c0.1,0,0.2,0,0.3,0l0.8-0.5c0.1,0,0.1-0.1,0-0.1l-0.8-0.4
				C53.9,58.8,53.8,58.8,53.7,58.9z"/>
			<path class="st9" d="M54.8,58.2L54,58.6c-0.1,0-0.1,0.1,0,0.1l0.8,0.4c0.1,0,0.2,0,0.3,0l0.8-0.5c0.1,0,0.1-0.1,0-0.1l-0.8-0.4
				C55,58.1,54.9,58.1,54.8,58.2z"/>
			<path class="st9" d="M56,57.5L55.2,58c-0.1,0-0.1,0.1,0,0.1l0.8,0.4c0.1,0,0.2,0,0.3,0l0.8-0.5c0.1,0,0.1-0.1,0-0.1l-0.8-0.4
				C56.1,57.5,56,57.5,56,57.5z"/>
			<path class="st9" d="M57.1,56.9l-0.8,0.5c-0.1,0,0,0.1,0,0.1l0.8,0.4c0.1,0,0.2,0,0.3,0l0.8-0.5c0.1,0,0.1-0.1,0-0.1l-0.8-0.4
				C57.3,56.9,57.2,56.9,57.1,56.9z"/>
			<path class="st9" d="M58.3,56.2l-0.8,0.5c-0.1,0-0.1,0.1,0,0.1l0.8,0.4c0.1,0,0.2,0,0.3,0l0.8-0.5c0.1,0,0.1-0.1,0-0.1l-0.8-0.4
				C58.4,56.2,58.3,56.2,58.3,56.2z"/>
			<path class="st9" d="M59.4,55.6L58.6,56c-0.1,0-0.1,0.1,0,0.1l0.8,0.4c0.1,0,0.2,0,0.3,0l0.8-0.5c0.1,0,0.1-0.1,0-0.1l-0.8-0.4
				C59.6,55.5,59.5,55.5,59.4,55.6z"/>
			<path class="st9" d="M60.6,54.9l-0.8,0.5c-0.1,0,0,0.1,0,0.1l0.8,0.4c0.1,0,0.2,0,0.3,0l0.8-0.5c0.1,0,0.1-0.1,0-0.1l-0.8-0.4
				C60.7,54.9,60.6,54.9,60.6,54.9z"/>
			<path class="st9" d="M61.7,54.2l-0.8,0.5c-0.1,0-0.1,0.1,0,0.1l0.8,0.4c0.1,0,0.2,0,0.3,0l0.8-0.5c0.1,0,0.1-0.1,0-0.1l-0.8-0.4
				C61.9,54.2,61.8,54.2,61.7,54.2z"/>
			<path class="st9" d="M48,62.2l-1.4,0.8c-0.1,0,0,0.1,0,0.1l0.8,0.4c0.1,0,0.2,0,0.3,0l1.4-0.8c0.1,0,0-0.1,0-0.1l-0.8-0.4
				C48.1,62.1,48.1,62.1,48,62.2z"/>
			<path class="st9" d="M63.9,54.2l-0.8,0.5c-0.1,0-0.2,0-0.2,0L62,54.2c0,0-0.1-0.1,0-0.1c0,0,0,0,0,0H62c0.1,0,0.1-0.1,0-0.1
				l-0.9-0.5c-0.1,0-0.1-0.1,0-0.1l0.5-0.3c0.1,0,0.2,0,0.2,0l0.8,0.5l0.2,0.1l0.1,0.1l0.1,0.1L63.9,54.2C64,54.1,64,54.2,63.9,54.2
				z"/>
			<path class="st9" d="M44.1,60.6L43.3,61c-0.1,0-0.1,0.1,0,0.1l0.8,0.4c0.1,0,0.2,0,0.3,0l0.8-0.5c0.1,0,0.1-0.1,0-0.1l-0.8-0.4
				C44.3,60.5,44.2,60.5,44.1,60.6z"/>
			<path class="st9" d="M45.3,59.9l-0.8,0.5c-0.1,0-0.1,0.1,0,0.1l0.8,0.4c0.1,0,0.2,0,0.3,0l0.8-0.5c0.1,0,0.1-0.1,0-0.1l-0.8-0.4
				C45.4,59.9,45.3,59.9,45.3,59.9z"/>
			<path class="st9" d="M46.4,59.2l-0.8,0.5c-0.1,0-0.1,0.1,0,0.1l0.8,0.4c0.1,0,0.2,0,0.3,0l0.8-0.5c0.1,0,0.1-0.1,0-0.1l-0.8-0.4
				C46.6,59.2,46.5,59.2,46.4,59.2z"/>
			<path class="st9" d="M56.1,53.6l-0.8,0.5c-0.1,0-0.1,0.1,0,0.1l0.8,0.4c0.1,0,0.2,0,0.3,0l0.8-0.5c0.1,0,0.1-0.1,0-0.1l-0.8-0.4
				C56.3,53.6,56.2,53.6,56.1,53.6z"/>
			<path class="st9" d="M57.2,53l-0.8,0.5c-0.1,0-0.1,0.1,0,0.1l0.8,0.4c0.1,0,0.2,0,0.3,0l0.8-0.5c0.1,0,0.1-0.1,0-0.1L57.5,53
				C57.4,53,57.3,53,57.2,53z"/>
			<path class="st9" d="M58.4,52.3l-0.8,0.5c-0.1,0-0.1,0.1,0,0.1l0.8,0.4c0.1,0,0.2,0,0.3,0l0.8-0.5c0.1,0,0.1-0.1,0-0.1l-0.8-0.4
				C58.5,52.3,58.4,52.3,58.4,52.3z"/>
			<path class="st9" d="M59.5,51.7l-0.8,0.5c-0.1,0-0.1,0.1,0,0.1l0.8,0.4c0.1,0,0.2,0,0.3,0l0.8-0.5c0.1,0,0-0.1,0-0.1l-0.8-0.4
				C59.7,51.6,59.6,51.6,59.5,51.7z"/>
			<path class="st9" d="M47.8,58.4l-1.1,0.6c-0.1,0,0,0.1,0,0.1l0.8,0.4c0.1,0,0.2,0,0.3,0l1.1-0.6c0.1,0,0.1-0.1,0-0.1l-0.8-0.4
				C48,58.4,47.9,58.4,47.8,58.4z"/>
			<path class="st9" d="M55,54.3l-1.1,0.6c-0.1,0-0.1,0.1,0,0.1l0.8,0.4c0.1,0,0.2,0,0.3,0l1.1-0.6c0.1,0,0.1-0.1,0-0.1l-0.8-0.4
				C55.1,54.3,55,54.3,55,54.3z"/>
			<path class="st9" d="M53.5,55.2l-5.4,3.1c-0.1,0-0.1,0.1,0,0.1l0.8,0.4c0.1,0,0.2,0,0.3,0l5.4-3.1c0.1,0,0.1-0.1,0-0.1l-0.8-0.4
				C53.7,55.1,53.6,55.1,53.5,55.2z"/>
			<path class="st9" d="M48.3,60.7l-0.8,0.5c-0.1,0-0.1,0.1,0,0.1l0.8,0.4c0.1,0,0.2,0,0.3,0l0.8-0.5c0.1,0,0.1-0.1,0-0.1l-0.8-0.4
				C48.5,60.6,48.4,60.6,48.3,60.7z"/>
			<path class="st9" d="M49.5,60l-0.8,0.5c-0.1,0-0.1,0.1,0,0.1l0.8,0.4c0.1,0,0.2,0,0.3,0l0.8-0.5c0.1,0,0.1-0.1,0-0.1L49.7,60
				C49.6,60,49.5,60,49.5,60z"/>
			<path class="st9" d="M50.6,59.4l-0.8,0.5c-0.1,0,0,0.1,0,0.1l0.8,0.4c0.1,0,0.2,0,0.3,0l0.8-0.5c0.1,0,0.1-0.1,0-0.1l-0.8-0.4
				C50.8,59.3,50.7,59.3,50.6,59.4z"/>
			<path class="st9" d="M51.8,58.7L51,59.2c-0.1,0,0,0.1,0,0.1l0.8,0.4c0.1,0,0.2,0,0.3,0l0.8-0.5c0.1,0,0.1-0.1,0-0.1L52,58.7
				C51.9,58.7,51.8,58.7,51.8,58.7z"/>
			<path class="st9" d="M52.9,58.1l-0.8,0.5c-0.1,0,0,0.1,0,0.1l0.8,0.4c0.1,0,0.2,0,0.3,0l0.8-0.5c0.1,0,0.1-0.1,0-0.1l-0.8-0.4
				C53.1,58,53,58,52.9,58.1z"/>
			<path class="st9" d="M54,57.4l-0.8,0.5c-0.1,0,0,0.1,0,0.1l0.8,0.4c0.1,0,0.2,0,0.3,0L55,58c0.1,0,0.1-0.1,0-0.1l-0.8-0.4
				C54.2,57.4,54.1,57.4,54,57.4z"/>
			<path class="st9" d="M55.2,56.7l-0.8,0.5c-0.1,0,0,0.1,0,0.1l0.8,0.4c0.1,0,0.2,0,0.3,0l0.8-0.5c0.1,0,0-0.1,0-0.1l-0.8-0.4
				C55.3,56.7,55.3,56.7,55.2,56.7z"/>
			<path class="st9" d="M56.3,56.1l-0.8,0.5c-0.1,0,0,0.1,0,0.1l0.8,0.4c0.1,0,0.2,0,0.3,0l0.8-0.5c0.1,0,0-0.1,0-0.1l-0.8-0.4
				C56.5,56,56.4,56,56.3,56.1z"/>
			<path class="st9" d="M57.5,55.4l-0.8,0.5c-0.1,0,0,0.1,0,0.1l0.8,0.4c0.1,0,0.2,0,0.3,0l0.8-0.5c0.1,0,0-0.1,0-0.1l-0.8-0.4
				C57.6,55.4,57.5,55.4,57.5,55.4z"/>
			<path class="st9" d="M58.6,54.8l-0.8,0.5c-0.1,0-0.1,0.1,0,0.1l0.8,0.4c0.1,0,0.2,0,0.3,0l0.8-0.5c0.1,0,0-0.1,0-0.1l-0.8-0.4
				C58.8,54.7,58.7,54.7,58.6,54.8z"/>
			<path class="st9" d="M59.7,54.1l-0.8,0.5c-0.1,0-0.1,0.1,0,0.1l0.8,0.4c0.1,0,0.2,0,0.3,0l0.8-0.5c0.1,0,0-0.1,0-0.1L60,54.2
				C59.9,54.1,59.8,54.1,59.7,54.1z"/>
			<path class="st9" d="M60.9,53.4l-0.8,0.5c-0.1,0-0.1,0.1,0,0.1l0.8,0.4c0.1,0,0.2,0,0.3,0l0.8-0.5c0.1,0,0-0.1,0-0.1l-0.8-0.4
				C61.1,53.4,61,53.4,60.9,53.4z"/>
			<path class="st9" d="M47.2,61.3l-1.7,1c-0.1,0-0.1,0.1,0,0.1l0.8,0.4c0.1,0,0.2,0,0.3,0l1.7-1c0.1,0,0.1-0.1,0-0.1l-0.8-0.4
				C47.4,61.3,47.3,61.3,47.2,61.3z"/>
			<path class="st9" d="M46.7,60.4l-0.8,0.5c-0.1,0-0.1,0.1,0,0.1l0.8,0.4c0.1,0,0.2,0,0.3,0l0.8-0.5c0.1,0,0.1-0.1,0-0.1l-0.8-0.4
				C46.8,60.3,46.7,60.3,46.7,60.4z"/>
			<path class="st9" d="M47.8,59.7L47,60.2c-0.1,0-0.1,0.1,0,0.1l0.8,0.4c0.1,0,0.2,0,0.3,0l0.8-0.5c0.1,0,0.1-0.1,0-0.1L48,59.7
				C48,59.7,47.9,59.7,47.8,59.7z"/>
			<path class="st9" d="M49,59.1l-0.8,0.5c-0.1,0-0.1,0.1,0,0.1l0.8,0.5c0.1,0,0.2,0,0.3,0l0.8-0.5c0.1,0,0.1-0.1,0-0.1l-0.8-0.4
				C49.2,59,49.1,59,49,59.1z"/>
			<path class="st9" d="M50.1,58.4l-0.8,0.5c-0.1,0-0.1,0.1,0,0.1l0.8,0.4c0.1,0,0.2,0,0.3,0l0.8-0.5c0.1,0,0.1-0.1,0-0.1l-0.8-0.4
				C50.3,58.4,50.2,58.4,50.1,58.4z"/>
			<path class="st9" d="M51.2,57.7l-0.8,0.5c-0.1,0-0.1,0.1,0,0.1l0.8,0.4c0.1,0,0.2,0,0.3,0l0.8-0.5c0.1,0,0.1-0.1,0-0.1l-0.8-0.4
				C51.4,57.7,51.3,57.7,51.2,57.7z"/>
			<path class="st9" d="M52.4,57.1l-0.8,0.5c-0.1,0-0.1,0.1,0,0.1l0.8,0.4c0.1,0,0.2,0,0.3,0l0.8-0.5c0.1,0,0.1-0.1,0-0.1l-0.8-0.4
				C52.5,57,52.4,57,52.4,57.1z"/>
			<path class="st9" d="M53.5,56.4l-0.8,0.5c-0.1,0-0.1,0.1,0,0.1l0.8,0.4c0.1,0,0.2,0,0.3,0l0.8-0.5c0.1,0,0.1-0.1,0-0.1l-0.8-0.4
				C53.7,56.4,53.6,56.4,53.5,56.4z"/>
			<path class="st9" d="M54.6,55.8l-0.8,0.5c-0.1,0-0.1,0.1,0,0.1l0.8,0.4c0.1,0,0.2,0,0.3,0l0.8-0.5c0.1,0,0.1-0.1,0-0.1l-0.8-0.4
				C54.8,55.7,54.7,55.7,54.6,55.8z"/>
			<path class="st9" d="M55.8,55.1L55,55.6c-0.1,0-0.1,0.1,0,0.1l0.8,0.4c0.1,0,0.2,0,0.3,0l0.8-0.5c0.1,0,0.1-0.1,0-0.1L56,55.1
				C56,55.1,55.9,55.1,55.8,55.1z"/>
			<path class="st9" d="M57,54.4l-0.8,0.5c-0.1,0-0.1,0.1,0,0.1l0.8,0.4c0.1,0,0.2,0,0.3,0L58,55c0.1,0,0.1-0.1,0-0.1l-0.8-0.4
				C57.1,54.4,57,54.4,57,54.4z"/>
			<path class="st9" d="M58.1,53.8l-0.8,0.5c-0.1,0-0.1,0.1,0,0.1l0.8,0.4c0.1,0,0.2,0,0.3,0l0.8-0.5c0.1,0,0.1-0.1,0-0.1l-0.8-0.4
				C58.2,53.8,58.1,53.8,58.1,53.8z"/>
			<path class="st9" d="M60.6,52.3l-2.2,1.3c-0.1,0-0.1,0.1,0,0.1l0.8,0.4c0.1,0,0.2,0,0.3,0l2.2-1.3c0.1,0,0.1-0.1,0-0.1l-0.8-0.4
				C60.8,52.3,60.7,52.3,60.6,52.3z"/>
			<path class="st9" d="M45.5,61l-1.1,0.6c-0.1,0-0.1,0.1,0,0.1l0.8,0.4c0.1,0,0.2,0,0.3,0l1.1-0.6c0.1,0,0.1-0.1,0-0.1L45.8,61
				C45.7,61,45.6,61,45.5,61z"/>
			<path class="st9" d="M65.1,54.9l-16.2,9.4c-0.1,0-0.1,0.1,0,0.1l0.4,0.2c0.1,0,0.2,0,0.3,0l16.2-9.4c0.1,0,0.1-0.1,0-0.1
				l-0.4-0.2C65.2,54.9,65.2,54.9,65.1,54.9z"/>
			<polygon id="_Контур_18" class="st10" points="46.1,55.3 46.2,55.4 49,57 54,54.1 54.1,54.1 51.2,52.4 			"/>
			<polygon id="_Контур_19" class="st11" points="46.2,55.4 49,57 54,54.1 51.2,52.5 			"/>
			<path id="_Контур_20" class="st11" d="M38.2,59.1v0.3c0,0.4,0.2,0.7,0.5,0.9l9.9,5.7C48.7,66,48.9,66,49,66
				c0.2,0,0.4,0,0.5-0.1l17.8-10.3c0.3-0.2,0.5-0.5,0.5-0.9v-0.3L49,65.4L38.2,59.1z"/>
			<path id="_Контур_21" class="st8" d="M49.3,65.5c0.3,0.1,0.7,0.1,1-0.1l17.8-10.3c0.3-0.2,0.5-0.5,0.6-0.8l2-11.6
				c0-0.1,0-0.1,0-0.2c0-0.3-0.1-0.6-0.3-0.9L51.9,52.3c-0.2,0.1-0.4,0.4-0.4,0.6L49.3,65.5z"/>
			<path id="_Контур_22" class="st11" d="M49,65.4l0.1,0.1l0.2,0.1L51.4,53c0-0.3,0.2-0.5,0.4-0.6l18.5-10.7
				c-0.1-0.1-0.2-0.1-0.3-0.2L51.6,52.2c-0.2,0.1-0.4,0.4-0.4,0.6L49,65.4z"/>
		</g>
	</g>
	<path id="_Контур_23" class="st5" d="M35.6,15.7c0,0,0.2,4.4,0.1,4.8s-2,1.7-2.6,2.2s3,4,4.8,4.8s7.3-1.3,7.4-4s-1-5-1.8-5.2
		S35.6,15.7,35.6,15.7z"/>
	<path id="_Контур_24" class="st8" d="M35.1,21.3c0,0,3.2,4.8,7.7,5.2c1.4-1.4,1.5-6.3-0.4-7.9c0,0,1.8-1.4,3-1.2
		c1.3,0.8,2.3,2,2.8,3.5c1.1,3.3,1.7,6.7,1.6,10.2c-0.1,4.7,0,16.5,0,16.5c-0.5,2.8-2.2,5.3-4.7,6.8c-3.2,1.8-7,2.3-10.6,1.5
		c-1.8-0.4-3.3-1.7-3.9-3.4c0.2-3.3,1.5-10,1-14.2c-0.5-4.2-1.4-7.2-1.7-10.5s0.4-3.3,2.1-4.5C33,22.6,34,21.9,35.1,21.3z"/>
	<path id="_Контур_25" class="st5" d="M40.3,59.3c-0.8-0.5-1.6-1-2.5-1.4c-0.8-0.3-1.5-0.7-2.1-1.3c-0.8-0.8-2.1-3.7-3-6.5
		c-0.9-3.2-1.3-6.5-1.1-9.9c0.4-4,1.8-9.6,2.2-11.8s-0.4-3.2-1.4-4c-1.3-1-3-0.6-3.9,2.7c-1.2,4.4-1.8,9-2,13.6
		c0,3.4,0.5,6.8,1.5,10c1,2.8,2.2,5.4,3.8,7.9c0.4,0.7,0.6,1.4,1.3,2.9c0.6,1.5,1.7,2.9,2.9,3.9c1.1,0.8,1.7,0.9,1.9,0.8
		s0.3-0.6-0.2-1c-0.8-0.6-1.5-1.4-2-2.2c0,0,1,1,1.6,1.5c0.6,0.5,1.2,0.9,1.9,1.2c0.7,0.3,1.6-0.3,1.1-0.7s-0.9-0.7-1.9-1.5
		c-0.5-0.4-1-0.9-1.4-1.4c0.7,0.5,1.4,1,2.1,1.4c0.6,0.3,1.2,0.5,1.9,0.5c0.3,0,0.8-0.5,0.1-1c-0.9-0.5-1.7-1-2.5-1.7
		c-0.7-0.7-1.1-1.3-0.9-1.3s0.6,0.4,1.4,0.7s1.7,0,1.8-0.4S41.1,59.7,40.3,59.3z"/>
	<path id="_Контур_26" class="st5" d="M45.6,9.2L45.6,9.2c-0.5-3.4-3-6-6.5-5.8c-3.8,0.2-6.6,3.4-6.4,7.2c0,0,0,0,0,0
		c0.1,2.1,1.2,4,3,5.2c0.1,0.5,0.3,1,0.5,1.5c1.2,1.5,5,2.4,6.1,2.2c1.3-0.1,2.4-1,2.8-2.3C46.3,14.4,45.9,10.8,45.6,9.2z"/>
	<path class="st9" d="M35.6,15.7L35.6,15.7l0.3-3c0,0-2.4-6.3,3.3-5.1c3.8,0.8,4.8,1.1,5.9-1.4S42.3,1.4,37.4,2
		c-3.5,0.4-6.1,3.3-6,6.8C31.5,10.7,32,14.5,35.6,15.7z"/>
	<path class="st12" d="M25.7,32.9c0,0,3.2,3.1,6.9,2.2c0.5-0.4,1.8-7.7,1.8-7.7s0-4.1-3.1-4S25.7,32.9,25.7,32.9z"/>
	<path class="st12" d="M49.5,26.8c0.9,0,1.7-0.4,2.3-1c-0.1-1.6-2.2-7.9-6.5-8.3c1.2,0.8,2.1,1.9,2.6,3.2
		C48.7,22.7,49.2,24.7,49.5,26.8z"/>
</g>
</svg>
