<?xml version="1.0" encoding="utf-8"?>
<!-- Generator: Adobe Illustrator 21.0.0, SVG Export Plug-In . SVG Version: 6.00 Build 0)  -->
<svg version="1.1" id="Layer_1" xmlns="http://www.w3.org/2000/svg" xmlns:xlink="http://www.w3.org/1999/xlink" x="0px" y="0px"
	 viewBox="0 0 112.3 171.7" style="enable-background:new 0 0 112.3 171.7;" xml:space="preserve">
<style type="text/css">
	.st0{opacity:0.4;fill:#D6D8E5;enable-background:new    ;}
	.st1{fill:#FFCEA9;}
	.st2{fill:#38226D;}
	.st3{fill:#9C73FF;}
	.st4{fill:#8C50FF;}
	.st5{fill:#EDEDED;}
	.st6{fill:#F4F4F4;}
	.st7{fill:#3A2C6D;}
	.st8{fill:#2B2A30;}
	.st9{fill:#BF4B4B;}
	.st10{fill:#E26161;}
</style>
<title>Business_SVG</title>
<g id="Слой_2">
	<g id="Слой_1-2">
		<g id="Girl_4">
			<ellipse class="st0" cx="85.4" cy="158.6" rx="22.7" ry="13.1"/>
			<path id="_Контур_33" class="st1" d="M98.5,57.9c2,0.6,3.1,2.8,4.9,7.5c1.4,4.3,2.2,8.7,2.1,13.2
				c-0.6,4.4-2.4,7.9-6.8,11.4l-2.1-3.9c0,0,4.3-3.8,4.8-8.2c0.3-2.5-2.7-10.8-2.7-11.1S98.5,57.9,98.5,57.9z"/>
			<path class="st2" d="M81.2,159.8c-1.3,0.4-2.8,0.2-4-0.5c-1.1,0-7.4-2.5-8.2-0.4c-0.7,1.9,1.8,3.6,3.2,3.9c3,0.7,5.2,2.2,6.4,2.4
				c0.9,0.3,1.9,0.2,2.7-0.4C82.1,164,82,160.9,81.2,159.8z"/>
			<path class="st3" d="M78.5,164.7c-1.2-0.3-3.4-1.7-6.4-2.5c-1.1-0.3-3.1-1.5-3.3-3c-0.3,1.7,2,3.2,3.3,3.5c3,0.7,5.2,2.2,6.4,2.4
				c0.9,0.3,1.9,0.2,2.7-0.4c0.2-0.2,0.3-0.4,0.4-0.7C80.7,164.8,79.6,165,78.5,164.7z"/>
			<path class="st2" d="M97.3,151.4c-1.2,0.4-2.5,0.2-3.5-0.5c-1,0-7.5-2.4-8.3-0.4c-0.7,1.8,1.8,3.4,3.1,3.7c2.9,0.7,5,2.1,6.1,2.4
				c0.9,0.3,1.9,0.2,2.6-0.4C98.2,155.4,98.1,152.4,97.3,151.4z"/>
			<path class="st3" d="M94.7,156.1c-1.2-0.3-3.3-1.7-6.1-2.4c-1.1-0.3-3-1.5-3.2-2.9c-0.3,1.6,2,3.1,3.2,3.4c2.9,0.7,5,2.1,6.1,2.4
				c0.9,0.3,1.9,0.2,2.6-0.4c0.2-0.2,0.3-0.4,0.4-0.7C96.9,156.2,95.7,156.4,94.7,156.1z"/>
			<path id="_Контур_34" class="st1" d="M99.4,135.3c0-2.4-0.4-4.9-1.2-7.1c0,0,0.8-9.8,1.4-16.2c0.9-9.5,2.4-10.4,2-16.2
				c-0.4-5.3-3.4-8.8-4.2-12.4l-15.5,1.2c0,0-1.3,4.4-3.1,13.1s-1.9,19.1-1.7,32.9c0,3.5-0.6,6.6-0.4,15.5
				c0.1,5.9,0.5,13.2,0.5,13.2c2.3,1.9,3.8,0.5,3.8,0.5s4-17.6,4.6-21.6c0.4-2.2,0.2-4.5-0.5-6.7c0,0,1.2-5.5,2-9.9
				c1-5.3,3.7-16.8,3.7-16.8s-0.4,17.6,0.3,21.1c0.8,3.5,0.9,6.5,1.6,11.2c0.8,5.7,1.2,14,1.2,14c2.4,1.5,3.4,0.4,3.4,0.4
				S99.4,140.3,99.4,135.3z"/>
			<path class="st4" d="M97.4,83.3c1.6,1.7,4.3,6.7,4.3,14.4c0,8.6-1.3,6.9-1.8,16.3l-0.6,9.5c0,0-12.9,6.2-22.2,0.5
				c-0.8-1.8,0.3-21.7,1.9-28.8s2.7-10.5,2.7-10.5S93.6,87.8,97.4,83.3z"/>
			<path id="_Контур_35" class="st1" d="M97.6,57.8c-3.3-0.2-3.6,0.4-3.9-0.8c-0.1-0.4-0.3-3.3-0.3-3.3
				c0.3-0.4,0.6-0.8,0.8-1.2c2.2-1.4,3.7-3.7,4-6.3c0.5-4.6-2.9-8.8-7.5-9.3c-4.4-0.5-7.6,2.6-8.4,6.8c-0.5,2.1-0.9,6.3,0.4,9.7
				c0.7,1.9,1.4,3.3,3.2,3.2c0.6-0.1,1.2-0.2,1.7-0.3c0.1,0.8,0.1,1.6,0.1,2.4c0,0.9,0.1,1.3-1.6,2.3s2.5,3.1,5.2,2.9
				c2.7-0.2,5.8-1.8,6.6-3.6C98.7,58.4,99.1,57.9,97.6,57.8z"/>
			<path class="st5" d="M100,72.4c0,0,3.7-0.8,5.4-2.5c0,0-2.2-7-3.6-8.7S99,70.7,99,70.7L100,72.4z"/>
			<path id="_Контур_36" class="st6" d="M94.3,57.7c0.6,0.8,0.7,1.7-1.7,2.3c-1.7,0.5-3.5,0.3-5.2-0.4
				c-1.9,0.8-3.6,1.7-5.3,2.8c-2,6.6-0.4,7.5-1.2,12.2c0.3,2.4,0.7,8.5,0.8,9.9c4.5,3.1,13.6,2.1,15.6-1.3c0-1.1,0.1-2.2,0.3-3.3
				c2.1-7.9,3.8-10,3.2-16c-0.3-3.4-0.6-5.1-2.4-6.1C97.1,57.7,95.7,57.6,94.3,57.7z"/>
			<path id="_Контур_37" class="st1" d="M53.1,83.6c1,0.2,2,0.5,3,0.9c0.9,0.5,1.9,0.8,2.9,1c1.1,0.2,2.8-0.4,5.8-1.8
				c3.3-1.7,6.2-3.9,8.7-6.5c2.8-3.4,5.4-7,7.6-10.9c1.3-2.4,2.9-2.9,4.3-2.5c1.7,0.6,1.9,2.2,0,5.4c-2.4,4.1-5.4,8-8.7,11.4
				c-2.6,2.6-5.7,4.8-9.1,6.4c-2.4,1.2-5,2.1-7.6,2.6c-0.9,0.2-1.6,0.6-3.3,1.2c-1.7,0.6-3.5,0.8-5.3,0.6c-1.5-0.3-2-0.6-2.1-1
				s0.2-0.6,0.9-0.6c1.1,0.2,2.2,0.1,3.3-0.1c0,0-1.5,0-2.5-0.2c-0.8-0.1-1.6-0.3-2.4-0.6c-0.7-0.3-1-1.5-0.3-1.4s1.2,0.3,2.6,0.4
				c0.7,0.1,1.4,0.1,2.2,0c-0.9-0.1-1.8-0.4-2.7-0.7c-0.7-0.2-1.4-0.6-1.8-1.1c-0.3-0.3-0.2-1,0.7-0.8c1,0.4,2.1,0.6,3.2,0.7
				c1.1,0,1.9-0.1,1.8-0.3s-0.8-0.1-1.6-0.6s-1.3-1.4-1-1.8S52.2,83.2,53.1,83.6z"/>
			<path class="st5" d="M83.6,73c-2.6-0.4-5-1.6-6.8-3.5l4.1-5.7c0,0,2.3-2.9,5.4-1.3c0,0,2.3,0.3,0,5.1
				C85.6,69.4,84.7,71.2,83.6,73z"/>
			<path class="st7" d="M81.4,41.2c0.3-2.1,2.3-3.5,4.3-3.2c1.4-1,3.2-1.4,4.9-1.2c3.9,0.4,6.5,3,7.7,6.9c0.6,2,1,4,1.2,6
				c1.2,8.8,4.4,15.7,1.4,18.3s-11.1,4.3-14.5,2.6s2.8-16.7-3.9-25.1C80.9,43.6,80.8,42.2,81.4,41.2z"/>
		</g>
		<g id="Men_13">
			<ellipse class="st0" cx="22.7" cy="126.6" rx="22.7" ry="13.1"/>
			<path class="st8" d="M12,123.3c1.6,1.3,3.8,0.1,3.9,0.2c1.8,1.7,3.7,3.3,5.7,4.8c1,0.8,2.5,1.8,2.2,3.2c-0.5,2.6-4.6,1.8-6.2,1
				s-2.9-2.1-4.4-3c-1.1-0.7-2.1-1-2.3-2.3C10.9,126.3,11.7,123.3,12,123.3z"/>
			<path class="st9" d="M11,126.6c0.2,1.3,1.2,1.6,2.3,2.3c1.5,0.9,2.8,2.3,4.4,3.1s5.1,1.5,6.1-0.4c-0.5,2.5-4.6,1.7-6.2,0.9
				s-2.9-2.1-4.4-3c-1.1-0.7-2.1-1-2.3-2.3C11,127,11,126.8,11,126.6z"/>
			<path class="st8" d="M25.4,118.3c1.5,1.3,4.3-0.1,4.4,0c1.6,1.6,3.3,3.2,5.1,4.6c1,0.8,2.5,1.8,2.2,3.2c-0.5,2.6-4.7,1.8-6.2,1
				s-2.9-2.1-4.4-3c-1.1-0.7-2.1-1-2.3-2.3C24.1,120.9,25.1,118.3,25.4,118.3z"/>
			<path class="st9" d="M24.2,121.4c0.2,1.3,1.2,1.6,2.3,2.3c1.5,0.9,2.9,2.3,4.4,3.1c1.6,0.8,5.1,1.5,6.1-0.4
				c-0.5,2.5-4.7,1.7-6.2,0.9c-1.6-0.8-2.9-2.1-4.3-3c-1.1-0.7-2.1-1-2.3-2.3C24.2,121.8,24.2,121.6,24.2,121.4z"/>
			<path id="_Контур_38" class="st10" d="M11.9,66.2c0.1,2.3,0.8,12.5,1.1,17.9s0.4,12,0.4,12s-0.9,3.9-1.5,8.5s0,19.1,0,19.1
				c1.2,0.8,2.8,0.8,4,0c0,0,2.5-11.6,3.6-16.9s1.4-8.3,1.9-11.5c0.7-3.9,2.3-22.3,2.3-22.3h0.6L26,93.8c-0.5,1.5-0.9,3.1-1,4.7
				c-0.5,3.4,0.5,20.3,0.5,20.3c1.3,0.7,3,0.7,4.3-0.2c0,0,4.1-22.5,4.1-25.9c0-2.3-0.4-32.1-0.4-32.1L11.9,66.2z"/>
			<path id="_Контур_39" class="st1" d="M17.5,21c0,0,0.3,5.1,0.1,5.5s-2.3,1.9-3,2.5s3.5,4.6,5.6,5.6s8.5-1.5,8.6-4.7
				s-1.1-5.8-2.1-6S17.5,21,17.5,21z"/>
			<path class="st1" d="M31.4,30.5c0.3-2.3-1.2-4.4,0.3-6.2c5,4.9,4.4,18,5.5,26.4c3.7,3.9,11.3,7.8,13.4,8.7
				c0.4,0.2,0.7,0.4,0.6,0.8c-0.3,1.4-0.9,2.7-1.8,3.8c-5-2.1-8.5-3.4-14.8-9.3c-0.6-0.6-1.1-1.3-1.6-2.1
				C31.4,47.3,30.9,34.4,31.4,30.5z"/>
			<path id="_Контур_40" class="st6" d="M16.9,27.4c0,0,3.7,5.5,8.9,6c1.6-1.6,1.8-7.3-0.5-9.1c0,0,2.1-1.7,3.5-1.4
				c1.5,0.9,2.7,2.4,3.2,4.1c1.3,3.8,1.9,7.8,1.8,11.8c-0.1,5.4,0,21.9,0,21.9s-0.7,3.5-5.4,6.1s-8.1,2.9-11.3,2.1
				c-2.6-0.6-4.8-1.5-5.7-3.4c0.2-3.8,1.9-13.7,1.3-18.5s-1.6-8.3-1.9-12.2s0.5-3.8,2.4-5.1C14.4,28.9,15.6,28.1,16.9,27.4z"/>
			<path id="_Контур_41" class="st1" d="M29,13.4L29,13.4c-0.6-4-3.5-7-7.5-6.7c-4.3,0.2-7.7,3.9-7.4,8.3
				c0.1,2.4,1.4,4.7,3.4,6.1c0.1,0.6,0.4,1.2,0.6,1.7c1.4,1.7,5.8,2.7,7.1,2.5c1.5-0.1,2.8-1.2,3.3-2.6C29.8,19.5,29.4,15.4,29,13.4
				z"/>
			<path class="st8" d="M17.5,21L17.5,21l0.4-3.5c0,0-2.9-7.3,3.9-5.9c4.4,0.9,5.5,1.3,6.8-1.6s-3.4-5.6-9-4.9c-4,0.4-7,3.8-6.9,7.9
				C12.8,15.2,13.3,19.6,17.5,21z"/>
			<path class="st1" d="M9.7,32.7c1.9-0.5,0.5-0.1,1.9-0.5c5,4.9,4.4,13.4,5.6,21.7c2.8,4.6,13.1,10.8,13.1,10.8
				c0.1,0.9-0.2,1.1-1.3,3c-5.7-2.2-11-5.6-15.3-9.9c-0.3-0.2-0.6-0.3-0.7-0.6C11.1,51.8,9.2,36.6,9.7,32.7z"/>
			<polygon class="st6" points="55.5,43 48.1,68.6 31.6,75.2 37.6,50.2 			"/>
			<path class="st1" d="M27.6,64.9c0.2-0.9,0.9-0.7,1.6-0.4c0.8,0.3,1.6,0.4,2.4,0.2c0.6-0.3,1.2-0.7,1.7-1.2
				c0.3-0.2,0.7-0.3,1.1-0.3c0,0.2-0.4,1.5-0.4,1.5s3.6,0,4,0c0.3-0.1,0.6,0.2,0.7,0.5c0,0.2,0,0.4-0.1,0.5h0.3c0.7-0.2,1,1,0.3,1.1
				l-0.6,0.1c0.5,0.2,0.6,1,0,1.1h-0.2c-0.1,0-0.2,0-0.3,0H38c0.1,0.3-0.1,0.7-0.5,0.8c0,0,0,0-0.1,0c-1.8,0.2-4.3,0.9-5.9-0.5
				c-1.1-0.1-2.2-0.4-3.2-0.9C27.4,66.9,27.4,65.9,27.6,64.9z"/>
			<path class="st1" d="M45.6,62.8h0.3c-0.3-0.2-0.3-0.6-0.1-0.8c0.1-0.2,0.3-0.3,0.5-0.3c0.4,0,4.1-0.8,4.1-0.8l0.5-1.5
				c0-0.1,0.6,0.3,0.7,0.3c0.6,0.4,1.1,1.1,1.1,1.9c0,1.1-0.3,2.1-1.1,2.9c-0.7,0.7-1.5,1-2.5,1.1c-0.5,0-0.9,0-1.3,0.1
				c-0.4,0-0.7-0.3-0.7-0.6c0,0,0,0,0,0h-0.1c-0.1,0-0.2,0-0.3,0h-0.2c-0.6,0-0.7-0.8-0.3-1.1h-0.6C44.8,63.9,44.9,62.8,45.6,62.8z"
				/>
			<path class="st5" d="M33.5,33.8c1,0,2-0.5,2.7-1.2c-0.1-1.9-2.6-9.1-7.4-9.6c1.3,0.9,2.3,2.2,3,3.7C32.5,29,33.1,31.4,33.5,33.8z
				"/>
			<path class="st5" d="M8.8,43.3c0,0,4.8,1.7,8.3-1.1c0.4-0.6-2-8.9-2-8.9s-2-4.2-5.2-2.5C6.6,32.4,8.8,43.3,8.8,43.3z"/>
		</g>
	</g>
</g>
</svg>
