<?xml version="1.0" encoding="utf-8"?>
<!-- Generator: Adobe Illustrator 21.0.0, SVG Export Plug-In . SVG Version: 6.00 Build 0)  -->
<svg version="1.1" id="Layer_1" xmlns="http://www.w3.org/2000/svg" xmlns:xlink="http://www.w3.org/1999/xlink" x="0px" y="0px"
	 viewBox="0 0 1600.5 265.7" style="enable-background:new 0 0 1600.5 265.7;" xml:space="preserve">
<style type="text/css">
	.st0{opacity:0.5;fill:#FFFFFF;}
	.st1{fill:#FFFFFF;}
</style>
<path class="st0" d="M-0.5,164.3c9.5,9.4,99.4,28.6,107.4,29.9c115,18.1,233.8,8.3,347.9-11.4C675.3,144.5,872.1,33,1100.6,14
	c173.3-14.4,357.7-42.1,501.4,72.1v179.3H-0.5C-0.5,265.5-0.5,164.3-0.5,164.3z"/>
<path class="st1" d="M-1,203.8c5,4,44.1,14.4,47.5,15.2c46.2,11.7,94,17.2,141.6,19.1c108.2,4.2,218-12.5,323.7-38.3
	c106.1-25.9,206.2-70.6,308-109.2c192.2-72.9,429.6-122.4,632.1-64.5c45.6,13,89.3,32.6,128.4,59.4c3.1,2.1,21.8,12.7,21.8,16.1
	c0,0,0,163.8,0,163.8H-0.5C-0.5,265.5-1,203.9-1,203.8z"/>
</svg>
